<svg xmlns="http://www.w3.org/2000/svg" width="53" height="56.577" viewBox="0 0 53 56.577">
  <g id="Group_302" data-name="Group 302" transform="translate(-1771.002 -789.999)">
    <g id="Union_4" data-name="Union 4" transform="translate(3323 14529)" fill="none">
      <path d="M-1544.261-13684.646l.9-8.279A26.43,26.43,0,0,1-1552-13712.5a26.5,26.5,0,0,1,26.5-26.5,26.5,26.5,0,0,1,26.5,26.5,26.5,26.5,0,0,1-26.5,26.5,26.464,26.464,0,0,1-9.063-1.59l-6.529,4.776a1.973,1.973,0,0,1-1.172.391A2,2,0,0,1-1544.261-13684.646Z" stroke="none"/>
      <path d="M -1542.264526367188 -13683.423828125 C -1542.057983398438 -13683.423828125 -1541.862060546875 -13683.490234375 -1541.6826171875 -13683.62109375 L -1535.153442382812 -13688.3974609375 L -1534.72265625 -13688.712890625 L -1534.22119140625 -13688.5302734375 C -1531.4306640625 -13687.515625 -1528.49658203125 -13687.0009765625 -1525.500122070312 -13687.0009765625 C -1522.056884765625 -13687.0009765625 -1518.717163085938 -13687.6748046875 -1515.573852539062 -13689.0048828125 C -1512.537231445312 -13690.2890625 -1509.809936523438 -13692.126953125 -1507.467529296875 -13694.4697265625 C -1505.125244140625 -13696.8115234375 -1503.286376953125 -13699.5380859375 -1502.002075195312 -13702.57421875 C -1500.672607421875 -13705.7177734375 -1499.99853515625 -13709.056640625 -1499.99853515625 -13712.4990234375 C -1499.99853515625 -13715.9423828125 -1500.672607421875 -13719.2822265625 -1502.002075195312 -13722.4248046875 C -1503.286499023438 -13725.4619140625 -1505.125366210938 -13728.189453125 -1507.467651367188 -13730.53125 C -1509.809936523438 -13732.8740234375 -1512.537231445312 -13734.712890625 -1515.573852539062 -13735.9970703125 C -1518.717163085938 -13737.3271484375 -1522.056884765625 -13738.0009765625 -1525.500122070312 -13738.0009765625 C -1528.943359375 -13738.0009765625 -1532.282836914062 -13737.3271484375 -1535.425903320312 -13735.9970703125 C -1538.462036132812 -13734.712890625 -1541.18896484375 -13732.8740234375 -1543.530883789062 -13730.53125 C -1545.872680664062 -13728.189453125 -1547.711181640625 -13725.4619140625 -1548.995239257812 -13722.42578125 C -1550.324340820312 -13719.2822265625 -1550.998291015625 -13715.9423828125 -1550.998291015625 -13712.4990234375 C -1550.998291015625 -13708.8515625 -1550.24462890625 -13705.330078125 -1548.75830078125 -13702.0322265625 C -1547.321899414062 -13698.845703125 -1545.279174804688 -13696.0302734375 -1542.686767578125 -13693.6630859375 L -1542.312133789062 -13693.3212890625 L -1542.366943359375 -13692.81640625 L -1543.2666015625 -13684.5380859375 C -1543.306518554688 -13684.16796875 -1543.158081054688 -13683.916015625 -1543.026489257812 -13683.7685546875 C -1542.832397460938 -13683.552734375 -1542.547485351562 -13683.423828125 -1542.264526367188 -13683.423828125 M -1542.264526367188 -13682.423828125 C -1543.374389648438 -13682.423828125 -1544.398071289062 -13683.373046875 -1544.260864257812 -13684.6455078125 L -1543.361083984375 -13692.9248046875 C -1548.668334960938 -13697.7705078125 -1551.998291015625 -13704.74609375 -1551.998291015625 -13712.4990234375 C -1551.998291015625 -13727.1357421875 -1540.137084960938 -13739.0009765625 -1525.500122070312 -13739.0009765625 C -1510.86328125 -13739.0009765625 -1498.99853515625 -13727.1357421875 -1498.99853515625 -13712.4990234375 C -1498.99853515625 -13697.865234375 -1510.86328125 -13686.0009765625 -1525.500122070312 -13686.0009765625 C -1528.683227539062 -13686.0009765625 -1531.73583984375 -13686.5625 -1534.56298828125 -13687.5908203125 L -1541.092163085938 -13682.814453125 C -1541.461181640625 -13682.544921875 -1541.868530273438 -13682.423828125 -1542.264526367188 -13682.423828125 Z" stroke="none" fill="#2196f3"/>
    </g>
    <path id="Path_270" data-name="Path 270" d="M12.5-16.5H22.6v1.113H12.5V-4.82H11.345V-15.387H1.64V-16.5h9.705V-27.088H12.5Z" transform="translate(1785.725 831.771)" fill="#fff"/>
  </g>
</svg>
