<svg xmlns="http://www.w3.org/2000/svg" width="315.114" height="155.64" viewBox="0 0 315.114 155.64">
  <g id="Kokain_-_Cocaine" transform="translate(-8.292 -4.096)">
    <path id="Path_131" data-name="Path 131" d="M165.875,20.906l-1.5.594,10.188,24.594-2.375-.437L170.781,47.5,160.656,23.031l-1.531.625,10.5,25.313L149.219,75.563H112.156L89.5,62.5l-.812,1.438,22.156,12.781-7.312,12.656h1.844l7.031-12.187h36.625l9.031,33.719L129.594,91.531H89.219L83.25,69.156l-1.594.438,5.438,20.125L68,129.344l25.688-19.781,6.406-11H98.187l-5.75,9.937-18.75,14.438L91.781,96.375h31.625l36.031,17.344,23.75-13.75-.812-1.375-22.469,12.969-9.406-35,22.406-29.156,27.031,4.844.281-1.625-23.781-4.219-10.562-25.5Z" fill="#00bbf9"/>
    <path id="Path_132" data-name="Path 132" d="M72.812,66.543V50.215h2.223L83.589,63.03V50.215h2.079V66.544H83.445L74.891,53.729V66.544H72.812Z" fill="#00bbf9"/>
    <path id="Path_133" data-name="Path 133" d="M184.226,94.981a8.865,8.865,0,0,1,2.183-6.363,7.424,7.424,0,0,1,5.636-2.3,7.816,7.816,0,0,1,4.076,1.08,7.071,7.071,0,0,1,2.768,3.012,9.784,9.784,0,0,1,.952,4.381,9.621,9.621,0,0,1-1,4.443A6.851,6.851,0,0,1,196,102.2a8.122,8.122,0,0,1-3.965,1.008,7.726,7.726,0,0,1-4.121-1.113,7.172,7.172,0,0,1-2.751-3.04,9.21,9.21,0,0,1-.936-4.076Zm2.227.028a6.538,6.538,0,0,0,1.587,4.648,5.541,5.541,0,0,0,8-.017,6.925,6.925,0,0,0,1.576-4.865,8.356,8.356,0,0,0-.674-3.479,5.187,5.187,0,0,0-1.972-2.3,5.348,5.348,0,0,0-2.913-.818,5.53,5.53,0,0,0-3.949,1.575q-1.654,1.575-1.655,5.26Z" fill="#00bbf9"/>
    <path id="Path_134" data-name="Path 134" d="M150.358,12.759A8.865,8.865,0,0,1,152.541,6.4a7.425,7.425,0,0,1,5.636-2.3,7.819,7.819,0,0,1,4.076,1.08,7.065,7.065,0,0,1,2.768,3.012,9.784,9.784,0,0,1,.952,4.381,9.621,9.621,0,0,1-1,4.443,6.846,6.846,0,0,1-2.84,2.968,8.12,8.12,0,0,1-3.965,1.008,7.726,7.726,0,0,1-4.121-1.113,7.172,7.172,0,0,1-2.751-3.04,9.2,9.2,0,0,1-.936-4.076Zm2.227.028a6.538,6.538,0,0,0,1.587,4.648,5.541,5.541,0,0,0,8-.017,6.929,6.929,0,0,0,1.576-4.865,8.357,8.357,0,0,0-.674-3.479,5.175,5.175,0,0,0-1.972-2.3,5.35,5.35,0,0,0-2.913-.818,5.53,5.53,0,0,0-3.949,1.575Q152.585,9.1,152.585,12.786Z" fill="#00bbf9"/>
    <path id="Path_135" data-name="Path 135" d="M202.087,52.469a8.869,8.869,0,0,1,2.182-6.363,7.426,7.426,0,0,1,5.637-2.3,7.821,7.821,0,0,1,4.076,1.08A7.069,7.069,0,0,1,216.75,47.9a9.774,9.774,0,0,1,.953,4.381,9.609,9.609,0,0,1-1,4.443,6.849,6.849,0,0,1-2.84,2.968A8.125,8.125,0,0,1,209.9,60.7a7.723,7.723,0,0,1-4.121-1.113,7.16,7.16,0,0,1-2.751-3.04,9.217,9.217,0,0,1-.936-4.076Zm2.227.028a6.542,6.542,0,0,0,1.587,4.648,5.541,5.541,0,0,0,8-.017,6.93,6.93,0,0,0,1.577-4.865,8.341,8.341,0,0,0-.674-3.479,5.185,5.185,0,0,0-1.971-2.3,5.353,5.353,0,0,0-2.913-.818,5.533,5.533,0,0,0-3.95,1.575Q204.313,48.812,204.314,52.5Z" fill="#00bbf9"/>
    <path id="Path_136" data-name="Path 136" d="M8.292,66.543V50.215h2.167v6.71h8.446v-6.71h2.167V66.544H18.906V58.855H10.459v7.689H8.292Z" fill="#00bbf9"/>
    <path id="Path_137" data-name="Path 137" d="M22.98,67.582l1.5-.208a3.327,3.327,0,0,0,.882,1.841,2.193,2.193,0,0,0,1.527.563,2.449,2.449,0,0,0,1.8-.733,2.478,2.478,0,0,0,.731-1.82,2.3,2.3,0,0,0-.68-1.706,2.353,2.353,0,0,0-1.728-.672,4.36,4.36,0,0,0-1.066.167l.168-1.321a2.261,2.261,0,0,0,.243.017,3.1,3.1,0,0,0,1.73-.5,1.71,1.71,0,0,0,.77-1.542A1.816,1.816,0,0,0,28.3,60.3a2,2,0,0,0-1.449-.542,2.053,2.053,0,0,0-1.466.553,2.775,2.775,0,0,0-.753,1.659l-1.5-.267a3.863,3.863,0,0,1,1.254-2.345,3.623,3.623,0,0,1,2.433-.832,4.008,4.008,0,0,1,1.848.429,3.122,3.122,0,0,1,1.292,1.17A3.009,3.009,0,0,1,30.4,61.7a2.574,2.574,0,0,1-.426,1.442,2.914,2.914,0,0,1-1.261,1.034,2.861,2.861,0,0,1,1.69,1.039,3.157,3.157,0,0,1,.605,1.975,3.608,3.608,0,0,1-1.171,2.718,4.125,4.125,0,0,1-2.961,1.115,3.862,3.862,0,0,1-2.681-.959,3.7,3.7,0,0,1-1.22-2.486Z" fill="#00bbf9"/>
    <path id="Path_138" data-name="Path 138" d="M44.429,60.818l2.167.545a7.283,7.283,0,0,1-2.441,4.063,6.722,6.722,0,0,1-4.31,1.4,7.729,7.729,0,0,1-4.287-1.075,6.714,6.714,0,0,1-2.514-3.114,11.129,11.129,0,0,1-.862-4.379,9.642,9.642,0,0,1,.973-4.452,6.668,6.668,0,0,1,2.769-2.886,8.082,8.082,0,0,1,3.952-.986,6.668,6.668,0,0,1,4.113,1.248,6.481,6.481,0,0,1,2.324,3.512l-2.122.5A5.046,5.046,0,0,0,42.547,52.6a4.383,4.383,0,0,0-2.712-.812,5.265,5.265,0,0,0-3.141.9,4.763,4.763,0,0,0-1.773,2.422,9.761,9.761,0,0,0-.512,3.134,9.975,9.975,0,0,0,.605,3.635A4.514,4.514,0,0,0,36.9,64.2a5.274,5.274,0,0,0,2.766.769,4.625,4.625,0,0,0,3.066-1.047,5.36,5.36,0,0,0,1.7-3.106Z" fill="#00bbf9"/>
    <path id="Path_139" data-name="Path 139" d="M51.03,56.758H70.647v1.615H51.03Z" fill="#00bbf9"/>
    <path id="Path_140" data-name="Path 140" d="M238.032,24.813l2.167.545a7.283,7.283,0,0,1-2.441,4.063,6.722,6.722,0,0,1-4.31,1.4,7.729,7.729,0,0,1-4.287-1.075,6.714,6.714,0,0,1-2.514-3.114,11.129,11.129,0,0,1-.862-4.379,9.642,9.642,0,0,1,.973-4.452,6.661,6.661,0,0,1,2.768-2.886,8.082,8.082,0,0,1,3.952-.986,6.668,6.668,0,0,1,4.113,1.248,6.481,6.481,0,0,1,2.324,3.512l-2.122.5a5.046,5.046,0,0,0-1.644-2.594,4.383,4.383,0,0,0-2.712-.812,5.265,5.265,0,0,0-3.141.9,4.757,4.757,0,0,0-1.773,2.422,9.76,9.76,0,0,0-.511,3.134,9.955,9.955,0,0,0,.606,3.635A4.513,4.513,0,0,0,230.5,28.2a5.271,5.271,0,0,0,2.765.769,4.627,4.627,0,0,0,3.067-1.047,5.355,5.355,0,0,0,1.7-3.106Z" fill="#00bbf9"/>
    <path id="Path_141" data-name="Path 141" d="M242.949,30.538V14.209h2.167v6.71h8.446v-6.71h2.167V30.538h-2.167V22.849h-8.446v7.689Z" fill="#00bbf9"/>
    <path id="Path_142" data-name="Path 142" d="M257.246,31.577l1.5-.208a3.333,3.333,0,0,0,.882,1.841,2.2,2.2,0,0,0,1.527.563,2.446,2.446,0,0,0,1.8-.733,2.478,2.478,0,0,0,.731-1.82,2.3,2.3,0,0,0-.679-1.706,2.355,2.355,0,0,0-1.729-.672,4.354,4.354,0,0,0-1.065.167l.167-1.321a2.261,2.261,0,0,0,.243.017,3.108,3.108,0,0,0,1.731-.5,1.711,1.711,0,0,0,.769-1.542,1.819,1.819,0,0,0-.56-1.366,2,2,0,0,0-1.449-.542,2.055,2.055,0,0,0-1.467.553,2.776,2.776,0,0,0-.754,1.659l-1.5-.267a3.868,3.868,0,0,1,1.254-2.345,3.625,3.625,0,0,1,2.433-.832,4,4,0,0,1,1.848.429,3.114,3.114,0,0,1,1.291,1.17,3,3,0,0,1,.447,1.575,2.573,2.573,0,0,1-.425,1.442,2.917,2.917,0,0,1-1.262,1.034,2.858,2.858,0,0,1,1.69,1.039,3.151,3.151,0,0,1,.605,1.975,3.607,3.607,0,0,1-1.17,2.718,4.125,4.125,0,0,1-2.961,1.115,3.862,3.862,0,0,1-2.681-.959,3.7,3.7,0,0,1-1.219-2.486Z" fill="#00bbf9"/>
    <path id="Path_143" data-name="Path 143" d="M225.546,29.731l1.282.95L216.615,44.028l-1.282-1,10.212-13.3Z" fill="#00bbf9"/>
    <path id="Path_144" data-name="Path 144" d="M289.906,36.469,256.469,55.813V93.469l-31.812,18.375-22.969-13.25-.781,1.437,20.125,11.594v29.031h1.625V112.563l2,1.156,2.031-1.156v28.094h1.625V111.625l28.969-16.719,32.625,18.844,33.5-19.312V55.813l-33.5-19.344Zm0,1.844,31.875,18.406v36.75l-31.875,18.375L258.094,93.469V56.719Z" fill="#00bbf9"/>
    <path id="Path_145" data-name="Path 145" d="M290.335,105.588l-.807,1.378-26.98-15.58.807-1.378,26.981,15.58Z" fill="#00bbf9"/>
    <path id="Path_146" data-name="Path 146" d="M316.127,59.513h1.614V90.721h-1.614V59.513Z" fill="#00bbf9"/>
    <path id="Path_147" data-name="Path 147" d="M263.354,60.226l-.807-1.377,26.98-15.627.807,1.425-26.981,15.58Z" fill="#00bbf9"/>
    <path id="Path_148" data-name="Path 148" d="M216.858,151.506a8.862,8.862,0,0,1,2.184-6.363,7.421,7.421,0,0,1,5.635-2.3,7.814,7.814,0,0,1,4.076,1.08,7.059,7.059,0,0,1,2.768,3.012,9.787,9.787,0,0,1,.952,4.381,9.621,9.621,0,0,1-1,4.443,6.841,6.841,0,0,1-2.84,2.968,8.117,8.117,0,0,1-3.965,1.008,7.728,7.728,0,0,1-4.121-1.113,7.178,7.178,0,0,1-2.751-3.04,9.191,9.191,0,0,1-.936-4.076Zm2.227.027a6.534,6.534,0,0,0,1.588,4.648,5.541,5.541,0,0,0,8-.017,6.934,6.934,0,0,0,1.575-4.865,8.356,8.356,0,0,0-.674-3.479,5.175,5.175,0,0,0-1.972-2.3,5.346,5.346,0,0,0-2.913-.818,5.528,5.528,0,0,0-3.948,1.575q-1.657,1.576-1.656,5.26Z" fill="#00bbf9"/>
  </g>
</svg>
