<svg xmlns="http://www.w3.org/2000/svg" width="1387.533" height="848" viewBox="0 0 1387.533 848">
  <g id="Group_42" data-name="Group 42" transform="translate(-785 -129)">
    <path id="Path_44" data-name="Path 44" d="M404.634,81.173c2.581-2.085,4.505-4.09,6.809-5.438q26.362-15.312,52.85-30.417a12.674,12.674,0,0,1,3.572-1.751c.968-.184,2.834.253,2.973.772a5.2,5.2,0,0,1-.645,3.457c-.4.726-1.544,1.06-2.373,1.544-19.587,11.268-39.174,22.537-59.2,34.1,5.761,2.754,11.188,5.68,7.259,14.863L448.013,79.79c9.632-5.553,19.207-11.222,28.966-16.568,1.36-.749,3.572,0,5.392.1-.91,1.44-1.475,3.457-2.765,4.228q-28.251,16.637-56.71,32.975a37.122,37.122,0,0,1-5.934,2.1v5.023c0,32.261.092,64.522-.115,96.783,0,4.609,1.337,7.167,5.392,9.471q48.714,27.767,97.151,56.076c1.613.933,3.364,3.318,3.376,5.047.173,22.064,0,44.14,0,66.215a6.244,6.244,0,0,1-.058,2.3c-.7,1.567-1.648,3.03-2.5,4.54-.922-1.59-2.627-3.18-2.638-4.77-.184-19.587-.127-39.174-.127-58.761v-7.627c-9.678,3.261-18.711,6.291-27.733,9.356-15.785,5.346-31.6,10.588-47.32,16.13a13.826,13.826,0,0,0-6.464,5.035Q419.359,332.4,403.39,357.683a10.035,10.035,0,0,0-1.751,6.279c4.47,27.825,9.217,55.615,13.826,83.417.207,1.267.657,2.5,1.152,4.309,10.312-5.888,20.267-11.522,30.233-17.283s19.944-11.522,30.049-16.972c1.429-.772,3.629-.115,5.473-.127-.991,1.555-1.625,3.733-3.053,4.609Q448.036,440.2,416.49,458.037a6.072,6.072,0,0,1-5.035-.334c-33.978-19.368-67.863-38.92-101.887-58.231-3.226-1.832-4.01-3.825-4-7.259.115-37.238,0-74.477.173-111.761,0-4.148-1.152-6.5-4.839-8.6-18.181-10.312-36.178-20.935-54.244-31.454-1.152-.68-2.592-1.152-3.387-2.12a16.858,16.858,0,0,1-1.832-4.113c1.406-.15,3.1-.853,4.182-.323,3.779,1.843,7.362,4.1,11.015,6.222,15.739,9.217,31.558,18.2,47.239,27.572,3.457,2.062,5.9,1.878,9.275-.081q46.951-27.4,94.144-54.383c3.307-1.89,4.413-3.906,4.4-7.662q-.219-54.717,0-109.457c0-3.537-1.072-5.45-4.148-7.178-18.538-10.462-36.95-21.154-55.4-31.765a14.587,14.587,0,0,1-3.86-2.443,4.378,4.378,0,0,1-.749-3.457c.127-.507,2.1-1.095,2.938-.807a33.779,33.779,0,0,1,5.507,2.88C372.442,62.7,388.884,72.14,404.634,81.173Zm108.4,191.595a25.94,25.94,0,0,0-2.385-1.878c-31.212-18.066-62.321-36.178-93.718-53.991-1.682-.968-5.116-.288-7.051.818-31.454,18.008-62.77,36.27-94.225,54.267-3.457,1.993-4.609,4.182-4.609,8.065q.219,54.44,0,108.869c0,4.09,1.5,6.072,4.839,7.962,26.2,14.84,52.309,29.841,78.44,44.773,5.116,2.927,10.254,5.761,15.877,8.987a22.386,22.386,0,0,0,0-3.053c-4.609-27.8-9.321-55.6-13.768-83.44a12.224,12.224,0,0,1,1.429-7.835q17.283-27.2,35.107-54.06a11.741,11.741,0,0,1,5.646-4.24c17.006-5.934,34.1-11.614,51.157-17.375,7.558-2.512,15.1-5.093,23.262-7.869Z" transform="translate(1116.706 135.626)" fill="#ff006e"/>
    <path id="Path_45" data-name="Path 45" d="M127.6,257.089c-1.59-7.236.553-11.971,8.849-13.688l-30.775-17.882c-10.946-6.348-21.96-12.593-32.791-19.149-1.694-1.025-2.581-3.4-3.848-5.15,2.212.277,4.793-.081,6.579.945q29.277,16.591,58.312,33.62c1.89,1.095,3.387,2.857,5.542,4.712.91-.472,2.42-1.152,3.848-1.993,14.126-8.134,28.182-16.384,42.4-24.357,1.959-1.095,4.609-.876,7.028-1.267-1.406,1.878-2.408,4.436-4.263,5.542q-25.486,15.105-51.272,29.7c-3.215,1.832-4.609,3.722-4.609,7.57q.265,54.717,0,109.457c0,3.848,1.325,5.761,4.517,7.57,32.457,18.573,64.8,37.342,97.267,55.892,3.318,1.89,4.344,3.963,4.332,7.7q-.219,57.609,0,115.217c0,3.779-1.152,5.761-4.424,7.65q-49.866,28.689-99.479,57.8c-3.341,1.97-5.669,1.636-8.86-.2q-50.12-28.8-100.435-57.286c-3.168-1.786-4.056-3.652-4.033-7.213q.242-58.173,0-116.37c0-3.687,1.152-5.473,4.171-7.2,32.111-18.435,64.107-37,96.253-55.3,3.94-2.3,5.611-4.609,5.577-9.356-.23-32.053-.115-64.118-.115-96.172v-5.519a80.8,80.8,0,0,1-7.938-3.526q-28.9-16.683-57.7-33.528c-.83-.484-1.947-.783-2.408-1.5a18.33,18.33,0,0,1-1.463-3.848c1.337-.219,2.973-1.048,3.963-.553,3.952,1.924,7.72,4.24,11.522,6.452q24.668,14.275,49.278,28.562C123.908,255.176,125.245,255.833,127.6,257.089ZM26.838,493.861v55.3c0,3.088.484,5.242,3.56,6.982,32.4,18.262,64.672,36.743,97.094,54.959a7.893,7.893,0,0,0,6.59-.1q47.827-27.514,95.388-55.546a8.468,8.468,0,0,0,3.572-6.107c.207-36.87.115-73.739.219-110.551,0-3.261-.933-5.185-3.848-6.855Q181.782,404.6,134.324,376.95a7.316,7.316,0,0,0-8.4,0Q78.536,404.556,30.836,431.9c-3.088,1.774-4.113,3.779-4.079,7.27C26.93,457.394,26.838,475.622,26.838,493.861Z" transform="translate(788.262 358.683)" fill="#a243ff"/>
    <path id="Path_46" data-name="Path 46" d="M471.19,379.31h-7.72V319.4c4.966-1.509,8.273-.542,11.153,4.1,7.789,12.536,16.13,24.737,24.2,37.065.991,1.5,2.12,2.915,4.24,5.842V319.167h7.109v59.786c-5.15,1.786-8.353.173-11.28-4.482-8.653-13.826-17.8-27.283-27.733-42.377Z" transform="translate(1249.509 301.829)" fill="#89fc00"/>
    <path id="Path_47" data-name="Path 47" d="M56.951,190.309c-.5,24.726-22.387,39.024-42.849,27.629-6.809-3.779-10.531-9.932-12.616-17.121A38.84,38.84,0,0,1,2.5,176.506a26.6,26.6,0,0,1,25.624-17.836c12.57.253,22.571,7.293,26.028,18.815C55.488,181.633,56.052,186.023,56.951,190.309Zm-50.3-.4L7.8,190.3c.138,2.3.115,4.609.449,6.913,1.521,9.978,9.125,17.352,18.2,17.8,10.9.53,18.93-4.689,20.958-15.485a52.1,52.1,0,0,0-.484-20.336c-1.682-7.57-7.478-12.559-15.451-13.653-7.72-1.06-14.978,1.095-19.115,7.9-2.984,4.839-3.894,10.957-5.715,16.465Z" transform="translate(784.994 215.281)" fill="#00bbf9"/>
    <path id="Path_48" data-name="Path 48" d="M183.94,190.254c.069-16.269,8.2-27.963,21.407-30.786,22.248-4.747,38.552,13.826,34.047,38.69-3.652,20.163-24.818,29.807-42.342,19.31C188.825,212.537,183.894,202.306,183.94,190.254Zm48.944,0a93.329,93.329,0,0,0-1.878-10.485c-2.742-9.217-10.773-14.978-19.806-14.425-9.966.565-17.548,7.017-18.919,16.925a59.29,59.29,0,0,0-.1,15.451A19.368,19.368,0,0,0,210.071,215c10.83.542,18.562-4.977,21.246-15.393.76-2.973,1.014-6,1.567-9.4Z" transform="translate(971.296 215.291)" fill="#00bbf9"/>
    <path id="Path_49" data-name="Path 49" d="M275.81,34.381C276.1,8.331,292.9-4.9,313.359,1.66c11.061,3.537,17.974,13.688,18.585,28.3.484,11.89-2.788,22.629-13.826,29.046-9.713,5.657-19.91,5.45-29.438-.576C278.84,52.217,275.9,42.308,275.81,34.381Zm48.61-2.662c0-12.374-5.461-21.569-14.6-24.322a19.956,19.956,0,0,0-25.417,14.379c-4.263,16.96,2.42,31.9,15.289,34.162C314.12,58.473,324.42,48.392,324.42,31.72Z" transform="translate(1064.341 129.003)" fill="#00bbf9"/>
    <path id="Path_50" data-name="Path 50" d="M515.706,32.439c-.415,24.553-22.882,38.333-42.93,26.316C460.251,51.242,455.493,30.86,462.74,15.41c5.968-12.8,20.105-18.435,34.565-13.711C508.931,5.489,515.971,17.276,515.706,32.439ZM466.819,31.6c.357,2.65.542,5.335,1.152,7.95,2.3,10.773,9.955,17.041,20.209,16.787,9.932-.242,17.732-6.683,19.092-17.283a49,49,0,0,0-1.083-18.665C503.331,9.706,493.515,4.763,482.8,7.218,472.476,9.58,467.164,17.818,466.819,31.6Z" transform="translate(1250.325 129.01)" fill="#00bbf9"/>
    <path id="Path_51" data-name="Path 51" d="M503.115,439.551V411.092H471v28.078h-7.6V379.258h7.3v24.656h32.468V379.2h7.005v60.04Z" transform="translate(1249.48 334.469)" fill="#89fc00"/>
    <path id="Path_52" data-name="Path 52" d="M142.407,86.253H110v27.975H102.45V54.4H109.7v24.68h32.261v-24.7l7.074-.323v60.178h-6.717Z" transform="translate(800.584 137.228)" fill="#89fc00"/>
    <path id="Path_53" data-name="Path 53" d="M623.722,403.8v28.459l-7.362.334V372.342h7.282v25.071c10.289,0,20.013.115,29.726-.173.91,0,2.431-2.592,2.489-4.033.265-6.844.115-13.7.115-20.877h7.074v59.752h-7.063c0-7.547-.207-14.978.069-22.4.173-4.309-.841-6.222-5.669-5.991C641.8,404.084,633.228,403.8,623.722,403.8Z" transform="translate(1448.06 330.724)" fill="#89fc00"/>
    <path id="Path_54" data-name="Path 54" d="M659.641,209.05l-7.236,1.659c-3.019-8.065-8.008-13.169-17.179-12.559-8.146.542-14.679,4.286-16.246,12.167a71.217,71.217,0,0,0-.5,23.712c1.256,8.538,8.169,13.457,16.13,13.826,8.561.426,14.16-3.318,17.686-11.833.426-1.037.841-2.074,1.429-3.514l6.683,1.648c-1.636,10.612-8.353,17.824-18.17,19.737-11.971,2.3-22.755-1.763-27.986-11.1-6.406-11.418-6.982-23.447-2.155-35.5,4.136-10.312,14.54-16.4,25.786-15.773C648.811,192.136,655.758,197.529,659.641,209.05Z" transform="translate(1446.925 233.099)" fill="#89fc00"/>
    <path id="Path_55" data-name="Path 55" d="M603.666,388.413l-7.2,1.809c-3.364-8.883-9.091-13.953-18.907-12.34-9.217,1.5-15.059,7.132-16.13,17.455a59.764,59.764,0,0,0,1.025,18.216c1.786,8.618,8.48,13.584,16.776,13.884s14.08-3.894,17.352-12.374c.334-.876.588-1.774,1.014-3.076l8.25,2c-2.765,4.747-4.609,9.344-7.685,12.881-7.051,8.065-16.568,8.18-26.051,5.991-10.37-2.4-15.716-10.37-17.525-20.036a59.349,59.349,0,0,1,0-21.016c2.212-12.236,12.248-20.036,24.392-20.566C591.523,370.67,599.311,375.9,603.666,388.413Z" transform="translate(1343.269 330.758)" fill="#89fc00"/>
    <path id="Path_56" data-name="Path 56" d="M230.17,93.9l6.348,1.763c-.311,9.459-8.273,18.239-17.743,19.852-16.234,2.754-28.378-4.609-31.616-20.739a58.38,58.38,0,0,1,.553-23.17c2.3-10.819,12.144-17.686,23.113-18.343,11.6-.7,19.817,3.906,24.288,13.665a33.143,33.143,0,0,1,1.037,3.457l-7.19,1.89c-3.3-8.687-8.791-13.653-18.435-12.5-9,1.083-14.759,6.314-16,14.805a65.339,65.339,0,0,0,.657,21.453c1.636,8.492,8.238,13.043,16.442,13.377s13.826-3.675,17.133-11.787C229.167,96.558,229.559,95.486,230.17,93.9Z" transform="translate(972.403 137.097)" fill="#89fc00"/>
    <path id="Path_57" data-name="Path 57" d="M668.19,435.894l4.609-1.314c4.09,7.259,7.466,9.01,13.1,6.913,4.01-1.486,5.542-4.609,5.173-8.618-.426-4.678-3.572-6.5-13.285-6.994,2.028-2.155,3.019-4.09,4.5-4.609,3.457-1.152,7.074-2.3,6.383-6.66a7.87,7.87,0,0,0-4.413-5.116c-3.883-1.406-7.892-.5-9.644,3.779-1.475,3.583-3.456,3.272-6.095,2.028,1.509-7.236,5.023-10.911,10.98-11.718,5.657-.772,11.522,1.936,13.722,6.395,2.615,5.185.864,9.217-3.791,12.893,6.5,3.94,9.091,9.321,6.084,16.441-2.477,5.876-8.365,8.8-15.693,8.065C673.732,446.713,670.126,443.314,668.19,435.894Z" transform="translate(1455.947 343.372)" fill="#a243ff"/>
    <path id="Path_58" data-name="Path 58" d="M154.716,97.145c1.532-7.2,5.162-10.98,11.222-11.522,5.542-.553,10.37,1.048,13.262,6.118s1.221,9.482-3.387,12.881c6.913,5.991,8.492,10.37,5.98,16.349s-8.5,9.217-16.061,8.353c-6.141-.68-9.84-4.344-11.211-11.36L159,116.4c3.157,7.95,8.584,10.577,15.543,5.3,1.878-1.429,3.076-6.832,1.89-8.549-2.039-2.938-6.2-4.413-10.577-7.213.161-.173,1.348-1.555,2.638-2.823,2.132-2.074,4.977-3.756,6.187-6.245.449-.945-2.42-4.609-4.413-5.4-3.595-1.452-7.432-.472-9.333,3.364C159.567,97.71,158.184,99.277,154.716,97.145Z" transform="translate(936.815 174.439)" fill="#ff006e"/>
    <path id="Path_59" data-name="Path 59" d="M670.188,192.74v60.213l-6.8.311V192.74Z" transform="translate(1455.216 233.46)" fill="#89fc00"/>
    <path id="Path_60" data-name="Path 60" d="M534.766,319.723c0,3.791.2,7.028-.115,10.208-.115,1.152-1.509,2.1-2.3,3.134-.922-1.152-2.5-2.12-2.65-3.318a81.041,81.041,0,0,1-.127-9.736H516.9c-.611-4.286-.611-4.286,12.582-6.372V302.095c4.839-1.97,5.484.38,5.369,3.814-.092,2.638,0,5.277,0,6.913,4.344,3.952,12.04-2.546,13.826,6.913Z" transform="translate(1294.634 286.848)" fill="#00bbf9"/>
    <path id="Path_61" data-name="Path 61" d="M678.278,191.62h36.178c1.152,3.249,1.221,5.438-3.307,5.381-9.77-.127-19.587-.161-29.3,0C677.91,197.093,677.23,195.353,678.278,191.62Z" transform="translate(1457.415 226.454)" fill="#a243ff"/>
    <path id="Path_62" data-name="Path 62" d="M545.035,383.836c-2.535.346-4.47,1.267-5.588.668q-12.559-6.809-24.783-14.218c-.876-.518-.9-2.477-1.313-3.768,1.152-.265,2.7-1.152,3.456-.7,8.515,4.666,16.949,9.494,25.348,14.391C543.053,380.7,543.537,381.878,545.035,383.836Z" transform="translate(1291.174 317.798)" fill="#00bbf9"/>
    <path id="Path_63" data-name="Path 63" d="M265.855,54.2a14.285,14.285,0,0,1-2.6,2.719c-5.761,3.457-11.522,6.913-17.409,10-1.267.668-3.272-.069-4.931-.15.818-1.5,1.256-3.595,2.512-4.378,5.669-3.56,11.522-6.913,17.421-9.989,1.244-.657,3.134-.092,4.724-.092C265.659,52.944,265.751,53.566,265.855,54.2Z" transform="translate(1020.829 136.929)" fill="#fff"/>
    <path id="Path_64" data-name="Path 64" d="M191.292,461.676v40.891a12.1,12.1,0,0,1-.15,4,14.137,14.137,0,0,1-2.523,3.318,19.47,19.47,0,0,1-2.523-3.215,7.063,7.063,0,0,1-.092-2.846V419.161a9.287,9.287,0,0,1,.138-3.457,10.946,10.946,0,0,1,2.408-2.685c.864.853,2.143,1.555,2.489,2.581a14.979,14.979,0,0,1,.253,4.609Q191.3,440.949,191.292,461.676Z" transform="translate(963.299 390.914)" fill="#fff"/>
    <path id="Path_65" data-name="Path 65" d="M45.167,496.22c1.5.807,2.685,1.406,3.848,2.074l73.831,42.17a8.872,8.872,0,0,1,2.823,1.924,12.744,12.744,0,0,1,1.221,3.457,17.07,17.07,0,0,1-4,.8c-.841,0-1.648-.887-2.477-1.36q-37.135-21.269-74.235-42.63c-1.509-.876-2.373-2.9-3.341-4.517a19.592,19.592,0,0,1,2.327-1.913Z" transform="translate(791.513 403.574)" fill="#00bbf9"/>
    <path id="Path_66" data-name="Path 66" d="M127.536,372.96A29.173,29.173,0,0,1,124,375.783Q86.185,397.547,48.255,419.1c-1.383.783-3.595.115-5.415.115.979-1.59,1.578-3.848,3-4.666q37.768-21.891,75.755-43.31c1.279-.726,3.145-.542,4.735-.507C126.672,370.748,126.995,371.923,127.536,372.96Z" transform="translate(791.513 327.076)" fill="#89fc00"/>
  </g>
</svg>
