<svg id="Para-methoxybutyryl_fentanyl" xmlns="http://www.w3.org/2000/svg" xmlns:xlink="http://www.w3.org/1999/xlink" width="323.256" height="220.316" viewBox="0 0 323.256 220.316">
  <defs>
    <clipPath id="clip-path">
      <path id="Path_195" data-name="Path 195" d="M274.553,69.991a4.757,4.757,0,0,1,4.757,4.757v9.514a4.757,4.757,0,0,1-4.757,4.757h-4.548a4.757,4.757,0,0,1-4.757-4.757V74.748a4.757,4.757,0,0,1,4.757-4.757ZM228.643,96.07a4.6,4.6,0,0,1,4.6,4.6v9.194a4.6,4.6,0,0,1-4.6,4.6h-2.391a4.6,4.6,0,0,1-4.6-4.6v-9.194a4.6,4.6,0,0,1,4.6-4.6Zm-89.665,0a4.6,4.6,0,0,1,4.6,4.6v9.194a4.6,4.6,0,0,1-4.6,4.6h-2.391a4.6,4.6,0,0,1-4.6-4.6v-9.194a4.6,4.6,0,0,1,4.6-4.6ZM289.5,199.411a4.757,4.757,0,0,1,4.757,4.757v9.514a4.757,4.757,0,0,1-4.757,4.757H284.95a4.757,4.757,0,0,1-4.757-4.757v-9.514a4.757,4.757,0,0,1,4.757-4.757ZM0,0V220.168H320.816V0Z" fill="#a243ff"/>
    </clipPath>
  </defs>
  <g id="Group_188" data-name="Group 188" transform="translate(130.443 94.78)">
    <text id="N_" data-name="N     " transform="translate(0 18)" fill="#a243ff" font-size="20" font-family="ArialMT, Arial"><tspan x="0" y="0" xml:space="preserve">N     </tspan></text>
  </g>
  <g id="Group_189" data-name="Group 189" transform="translate(220.108 94.78)">
    <text id="N_2" data-name="N     " transform="translate(0 18)" fill="#a243ff" font-size="20" font-family="ArialMT, Arial"><tspan x="0" y="0" xml:space="preserve">N     </tspan></text>
  </g>
  <g id="Group_190" data-name="Group 190" transform="translate(264.311 68.896)">
    <text id="O_" data-name="O     " transform="translate(0 18)" fill="#a243ff" font-size="20" font-family="ArialMT, Arial"><tspan x="0" y="0" xml:space="preserve">O     </tspan></text>
  </g>
  <g id="Group_191" data-name="Group 191" transform="translate(279.256 198.316)">
    <text id="O_2" data-name="O     " transform="translate(0 18)" fill="#a243ff" font-size="20" font-family="ArialMT, Arial"><tspan x="0" y="0" xml:space="preserve">O     </tspan></text>
  </g>
  <g id="Group_193" data-name="Group 193">
    <g id="Group_192" data-name="Group 192" clip-path="url(#clip-path)">
      <path id="Path_194" data-name="Path 194" d="M450.072,213.985,435.127,188.1a.629.629,0,1,0-1.089.629l14.944,25.884a.629.629,0,0,0,1.089-.629Z" transform="translate(-251.968 -109.035)" fill="#a243ff"/>
    </g>
  </g>
  <g id="Group_195" data-name="Group 195">
    <g id="Group_194" data-name="Group 194" clip-path="url(#clip-path)">
      <path id="Path_196" data-name="Path 196" d="M448.982,249.822l-14.944,25.884a.629.629,0,1,0,1.089.629l14.944-25.884a.629.629,0,0,0-1.089-.629Z" transform="translate(-251.968 -144.872)" fill="#a243ff"/>
    </g>
  </g>
  <g id="Group_197" data-name="Group 197">
    <g id="Group_196" data-name="Group 196" clip-path="url(#clip-path)">
      <path id="Path_198" data-name="Path 198" d="M393.2,187.787H363.312a.629.629,0,0,0,0,1.258H393.2a.629.629,0,0,0,0-1.258Z" transform="translate(-210.586 -109.035)" fill="#a243ff"/>
    </g>
  </g>
  <g id="Group_199" data-name="Group 199">
    <g id="Group_198" data-name="Group 198" clip-path="url(#clip-path)">
      <path id="Path_200" data-name="Path 200" d="M350.022,188.1l-9.2,15.943a.629.629,0,0,0,1.089.629l9.2-15.943a.629.629,0,1,0-1.089-.629Z" transform="translate(-197.841 -109.035)" fill="#a243ff"/>
    </g>
  </g>
  <g id="Group_201" data-name="Group 201">
    <g id="Group_200" data-name="Group 200" clip-path="url(#clip-path)">
      <path id="Path_202" data-name="Path 202" d="M340.818,274.155l9.2,15.943a.629.629,0,1,0,1.089-.629l-9.2-15.943a.629.629,0,1,0-1.089.629Z" transform="translate(-197.841 -158.636)" fill="#a243ff"/>
    </g>
  </g>
  <g id="Group_203" data-name="Group 203">
    <g id="Group_202" data-name="Group 202" clip-path="url(#clip-path)">
      <path id="Path_204" data-name="Path 204" d="M363.312,312.486H393.2a.629.629,0,0,0,0-1.258H363.312a.629.629,0,0,0,0,1.258Z" transform="translate(-210.586 -180.709)" fill="#a243ff"/>
    </g>
  </g>
  <g id="Group_205" data-name="Group 205">
    <g id="Group_204" data-name="Group 204" clip-path="url(#clip-path)">
      <path id="Path_206" data-name="Path 206" d="M277.987,249.508h-21.58a.629.629,0,1,0,0,1.258h21.58a.629.629,0,1,0,0-1.258Z" transform="translate(-148.513 -144.872)" fill="#a243ff"/>
    </g>
  </g>
  <g id="Group_207" data-name="Group 207">
    <g id="Group_206" data-name="Group 206" clip-path="url(#clip-path)">
      <path id="Path_208" data-name="Path 208" d="M236.261,213.985,221.317,188.1a.629.629,0,0,0-1.089.629l14.944,25.884a.629.629,0,0,0,1.089-.629Z" transform="translate(-127.822 -109.035)" fill="#a243ff"/>
    </g>
  </g>
  <g id="Group_209" data-name="Group 209">
    <g id="Group_208" data-name="Group 208" clip-path="url(#clip-path)">
      <path id="Path_210" data-name="Path 210" d="M179.391,187.787H149.5a.629.629,0,0,0,0,1.258h29.888a.629.629,0,1,0,0-1.258Z" transform="translate(-86.441 -109.035)" fill="#a243ff"/>
    </g>
  </g>
  <g id="Group_211" data-name="Group 211">
    <g id="Group_210" data-name="Group 210" clip-path="url(#clip-path)">
      <path id="Path_212" data-name="Path 212" d="M68.719,132.758a.629.629,0,1,0,0-1.258H46.363a.629.629,0,1,0,0,1.258Zm3.766-5.434a.629.629,0,0,0,0-1.258H42.6a.629.629,0,1,0,0,1.258Z" transform="translate(-24.368 -73.198)" fill="#a243ff"/>
    </g>
  </g>
  <g id="Group_213" data-name="Group 213">
    <g id="Group_212" data-name="Group 212" clip-path="url(#clip-path)">
      <path id="Path_214" data-name="Path 214" d="M21.361,126.38,6.417,152.264a.629.629,0,1,0,1.089.629L22.45,127.009a.629.629,0,0,0-1.089-.629Z" transform="translate(-3.677 -73.198)" fill="#a243ff"/>
    </g>
  </g>
  <g id="Group_215" data-name="Group 215">
    <g id="Group_214" data-name="Group 214" clip-path="url(#clip-path)">
      <path id="Path_216" data-name="Path 216" d="M14.1,188.646a.629.629,0,0,0-1.089.629l11.178,19.36a.629.629,0,1,0,1.089-.629ZM7.506,188.1a.629.629,0,1,0-1.089.629l14.944,25.884a.629.629,0,0,0,1.089-.629Z" transform="translate(-3.677 -109.035)" fill="#a243ff"/>
    </g>
  </g>
  <g id="Group_217" data-name="Group 217">
    <g id="Group_216" data-name="Group 216" clip-path="url(#clip-path)">
      <path id="Path_218" data-name="Path 218" d="M42.6,250.765H72.486a.629.629,0,1,0,0-1.258H42.6a.629.629,0,1,0,0,1.258Z" transform="translate(-24.368 -144.872)" fill="#a243ff"/>
    </g>
  </g>
  <g id="Group_219" data-name="Group 219">
    <g id="Group_218" data-name="Group 218" clip-path="url(#clip-path)">
      <path id="Path_220" data-name="Path 220" d="M129.357,152.264,114.412,126.38a.629.629,0,0,0-1.089.629l14.944,25.884a.629.629,0,1,0,1.089-.629Z" transform="translate(-65.75 -73.198)" fill="#a243ff"/>
    </g>
  </g>
  <g id="Group_221" data-name="Group 221">
    <g id="Group_220" data-name="Group 220" clip-path="url(#clip-path)">
      <path id="Path_222" data-name="Path 222" d="M125.448,188.73a.629.629,0,0,0-1.089-.629l-14.944,25.884a.629.629,0,0,0,1.089.629Zm-6.589.545a.629.629,0,0,0-1.089-.629l-11.178,19.36a.629.629,0,1,0,1.089.629Z" transform="translate(-61.842 -109.035)" fill="#a243ff"/>
    </g>
  </g>
  <g id="Group_223" data-name="Group 223">
    <g id="Group_222" data-name="Group 222" clip-path="url(#clip-path)">
      <path id="Path_224" data-name="Path 224" d="M470.218,250.766H491.8a.629.629,0,0,0,0-1.258h-21.58a.629.629,0,0,0,0,1.258Z" transform="translate(-272.659 -144.872)" fill="#a243ff"/>
    </g>
  </g>
  <g id="Group_225" data-name="Group 225">
    <g id="Group_224" data-name="Group 224" clip-path="url(#clip-path)">
      <path id="Path_226" data-name="Path 226" d="M554.628,274.155l9.2,15.943a.629.629,0,0,0,1.089-.629l-9.2-15.943a.629.629,0,1,0-1.089.629Z" transform="translate(-321.986 -158.636)" fill="#a243ff"/>
    </g>
  </g>
  <g id="Group_227" data-name="Group 227">
    <g id="Group_226" data-name="Group 226" clip-path="url(#clip-path)">
      <path id="Path_228" data-name="Path 228" d="M555.718,204.673l9.2-15.943a.629.629,0,0,0-1.089-.629l-9.2,15.943a.629.629,0,0,0,1.089.629Z" transform="translate(-321.986 -109.035)" fill="#a243ff"/>
    </g>
  </g>
  <g id="Group_229" data-name="Group 229">
    <g id="Group_228" data-name="Group 228" clip-path="url(#clip-path)">
      <path id="Path_230" data-name="Path 230" d="M573.381,181.308a.629.629,0,0,0,0,1.258h21.91a.629.629,0,1,0,0-1.258Zm0,5.434a.629.629,0,0,0,0,1.258h21.91a.629.629,0,1,0,0-1.258Z" transform="translate(-332.559 -105.273)" fill="#a243ff"/>
    </g>
  </g>
  <g id="Group_231" data-name="Group 231">
    <g id="Group_230" data-name="Group 230" clip-path="url(#clip-path)">
      <path id="Path_232" data-name="Path 232" d="M556.976,152.264,542.032,126.38a.629.629,0,0,0-1.089.629l14.944,25.884a.629.629,0,1,0,1.089-.629Z" transform="translate(-314.04 -73.198)" fill="#a243ff"/>
    </g>
  </g>
  <g id="Group_233" data-name="Group 233">
    <g id="Group_232" data-name="Group 232" clip-path="url(#clip-path)">
      <path id="Path_234" data-name="Path 234" d="M542.032,91.172l14.944-25.884a.629.629,0,1,0-1.089-.629L540.943,90.543a.629.629,0,0,0,1.089.629Z" transform="translate(-314.04 -37.36)" fill="#a243ff"/>
    </g>
  </g>
  <g id="Group_235" data-name="Group 235">
    <g id="Group_234" data-name="Group 234" clip-path="url(#clip-path)">
      <path id="Path_236" data-name="Path 236" d="M556.976,28.822,542.032,2.938a.629.629,0,0,0-1.089.629l14.944,25.884a.629.629,0,1,0,1.089-.629Z" transform="translate(-314.04 -1.523)" fill="#a243ff"/>
    </g>
  </g>
  <g id="Group_237" data-name="Group 237">
    <g id="Group_236" data-name="Group 236" clip-path="url(#clip-path)">
      <path id="Path_238" data-name="Path 238" d="M548.622,373.809a.629.629,0,1,0-1.089.629L558.711,393.8a.629.629,0,1,0,1.089-.629Zm-6.589-.545a.629.629,0,1,0-1.089.629l14.944,25.884a.629.629,0,0,0,1.089-.629Z" transform="translate(-314.04 -216.547)" fill="#a243ff"/>
    </g>
  </g>
  <g id="Group_239" data-name="Group 239">
    <g id="Group_238" data-name="Group 238" clip-path="url(#clip-path)">
      <path id="Path_240" data-name="Path 240" d="M577.124,435.93h29.888a.629.629,0,0,0,0-1.258H577.124a.629.629,0,0,0,0,1.258Z" transform="translate(-334.732 -252.385)" fill="#a243ff"/>
    </g>
  </g>
  <g id="Group_241" data-name="Group 241">
    <g id="Group_240" data-name="Group 240" clip-path="url(#clip-path)">
      <path id="Path_242" data-name="Path 242" d="M641.117,393.171a.629.629,0,0,0,1.089.629l11.177-19.36a.629.629,0,1,0-1.089-.629Zm2.823,5.979a.629.629,0,1,0,1.089.629L659.973,373.9a.629.629,0,0,0-1.089-.629Z" transform="translate(-372.204 -216.548)" fill="#a243ff"/>
    </g>
  </g>
  <g id="Group_243" data-name="Group 243">
    <g id="Group_242" data-name="Group 242" clip-path="url(#clip-path)">
      <path id="Path_244" data-name="Path 244" d="M663.88,337.428l-14.944-25.884a.629.629,0,0,0-1.089.629l14.944,25.884a.629.629,0,1,0,1.089-.629Z" transform="translate(-376.112 -180.71)" fill="#a243ff"/>
    </g>
  </g>
  <g id="Group_245" data-name="Group 245">
    <g id="Group_244" data-name="Group 244" clip-path="url(#clip-path)">
      <path id="Path_246" data-name="Path 246" d="M555.887,311.543l-14.944,25.884a.629.629,0,0,0,1.089.629l14.944-25.884a.629.629,0,0,0-1.089-.629Z" transform="translate(-314.04 -180.709)" fill="#a243ff"/>
    </g>
  </g>
  <g id="Group_247" data-name="Group 247">
    <g id="Group_246" data-name="Group 246" clip-path="url(#clip-path)">
      <path id="Path_248" data-name="Path 248" d="M577.122,311.229a.629.629,0,0,0,0,1.258H607.01a.629.629,0,1,0,0-1.258Zm3.766,5.434a.629.629,0,0,0,0,1.258h22.355a.629.629,0,1,0,0-1.258Z" transform="translate(-334.731 -180.71)" fill="#a243ff"/>
    </g>
  </g>
  <g id="Group_249" data-name="Group 249">
    <g id="Group_248" data-name="Group 248" clip-path="url(#clip-path)">
      <path id="Path_250" data-name="Path 250" d="M647.848,435.617l8.831,15.3a.629.629,0,0,0,1.089-.629l-8.831-15.3a.629.629,0,0,0-1.089.629Z" transform="translate(-376.113 -252.385)" fill="#a243ff"/>
    </g>
  </g>
  <g id="Group_251" data-name="Group 251">
    <g id="Group_250" data-name="Group 250" clip-path="url(#clip-path)">
      <path id="Path_252" data-name="Path 252" d="M706.792,497.652h20.341a.629.629,0,1,0,0-1.258H706.792a.629.629,0,1,0,0,1.258Z" transform="translate(-410.022 -288.223)" fill="#a243ff"/>
    </g>
  </g>
</svg>
