<svg xmlns="http://www.w3.org/2000/svg" width="174.205" height="65.51" viewBox="0 0 174.205 65.51">
  <g id="Group_295" data-name="Group 295" transform="translate(-210.512 -77.21)">
    <path id="Path_267" data-name="Path 267" d="M13.248.5A14.215,14.215,0,0,1,7.074-.756,8.913,8.913,0,0,1,2.97-4.77a15.426,15.426,0,0,1-1.458-7.218A15.358,15.358,0,0,1,2.97-19.152a9.192,9.192,0,0,1,4.1-4.086,13.718,13.718,0,0,1,6.174-1.314,20.852,20.852,0,0,1,4.428.468,23.73,23.73,0,0,1,4.14,1.3V-17.5A35.911,35.911,0,0,0,17.8-19.3a10.991,10.991,0,0,0-3.834-.684,7.859,7.859,0,0,0-3.51.72,4.689,4.689,0,0,0-2.214,2.466,12.267,12.267,0,0,0-.756,4.77A11.9,11.9,0,0,0,8.262-7.29a5.019,5.019,0,0,0,2.178,2.5,6.807,6.807,0,0,0,3.276.756,12.358,12.358,0,0,0,1.818-.126,4.956,4.956,0,0,0,1.494-.45V-8.856h-3.96v-4.536H22.86v11.3A22.146,22.146,0,0,1,18.2-.18,18.184,18.184,0,0,1,13.248.5ZM36.36.54A11.757,11.757,0,0,1,31.9-.252a6.415,6.415,0,0,1-3.024-2.43,7.623,7.623,0,0,1-1.08-4.266V-18.216h5.364V-7.38a3.709,3.709,0,0,0,.774,2.574A3.2,3.2,0,0,0,36.4-3.96a3.186,3.186,0,0,0,2.484-.846,3.768,3.768,0,0,0,.756-2.574V-18.216h5.04V-6.948q0,3.888-2.232,5.688A9.424,9.424,0,0,1,36.36.54ZM49.536,0V-17.964H54.9L54.936,0Zm-.108-20.7v-4.14h5.544v4.14ZM68.436.54A15.355,15.355,0,0,1,64.53.072a7.721,7.721,0,0,1-3.078-1.566A7.288,7.288,0,0,1,59.418-4.5a13.263,13.263,0,0,1-.738-4.752,10.422,10.422,0,0,1,2.178-6.984q2.178-2.556,6.534-2.556.576,0,1.512.09a8.089,8.089,0,0,1,1.944.45,4.466,4.466,0,0,1,1.8,1.224l-1.08,1.656V-25.7H76.9V-4.752a3.842,3.842,0,0,1-.72,2.322A5.622,5.622,0,0,1,74.25-.792,10.7,10.7,0,0,1,71.532.2,13.99,13.99,0,0,1,68.436.54Zm.216-4.5A5.477,5.477,0,0,0,70.758-4.3a1.107,1.107,0,0,0,.81-1.026v-8.388a6.093,6.093,0,0,0-1.386-.558,5.482,5.482,0,0,0-1.422-.2,5.847,5.847,0,0,0-2.556.5,3.238,3.238,0,0,0-1.566,1.692,8.106,8.106,0,0,0-.522,3.2,7.643,7.643,0,0,0,.432,2.718A3.513,3.513,0,0,0,65.97-4.59,4.956,4.956,0,0,0,68.652-3.96ZM89.892.54A10.054,10.054,0,0,1,85.05-.594a8.036,8.036,0,0,1-3.276-3.24A10.187,10.187,0,0,1,80.6-8.856q0-4.752,2.358-7.362a8.63,8.63,0,0,1,6.75-2.61,8.347,8.347,0,0,1,4.878,1.3,7.413,7.413,0,0,1,2.718,3.78A17.97,17.97,0,0,1,98.136-7.7H84.276l-.576-3.42H93.708l-.792,1.692a7.963,7.963,0,0,0-.828-4.1A2.885,2.885,0,0,0,89.5-14.724a3.371,3.371,0,0,0-1.818.5,3.258,3.258,0,0,0-1.26,1.674,9.25,9.25,0,0,0-.45,3.222,5.838,5.838,0,0,0,1.242,4,5.058,5.058,0,0,0,3.978,1.4,8.658,8.658,0,0,0,2-.234,15.308,15.308,0,0,0,1.854-.558q.864-.324,1.476-.576V-.684a16.484,16.484,0,0,1-2.9.882A18,18,0,0,1,89.892.54Zm20.7,0a15.355,15.355,0,0,1-3.906-.468,7.721,7.721,0,0,1-3.078-1.566A7.287,7.287,0,0,1,101.574-4.5a13.263,13.263,0,0,1-.738-4.752,10.422,10.422,0,0,1,2.178-6.984q2.178-2.556,6.534-2.556.576,0,1.512.09a8.088,8.088,0,0,1,1.944.45,4.467,4.467,0,0,1,1.8,1.224l-1.08,1.656V-25.7h5.328V-4.752a3.842,3.842,0,0,1-.72,2.322,5.622,5.622,0,0,1-1.926,1.638,10.7,10.7,0,0,1-2.718.99A13.99,13.99,0,0,1,110.592.54Zm.216-4.5a5.477,5.477,0,0,0,2.106-.342,1.107,1.107,0,0,0,.81-1.026v-8.388a6.093,6.093,0,0,0-1.386-.558,5.482,5.482,0,0,0-1.422-.2,5.847,5.847,0,0,0-2.556.5,3.238,3.238,0,0,0-1.566,1.692,8.106,8.106,0,0,0-.522,3.2,7.643,7.643,0,0,0,.432,2.718,3.513,3.513,0,0,0,1.422,1.764A4.956,4.956,0,0,0,110.808-3.96ZM10.62,32.5a27.554,27.554,0,0,1-3.312-.18,17.813,17.813,0,0,1-2.736-.54,15.127,15.127,0,0,1-2.448-.936V25.3A11.756,11.756,0,0,0,5.868,27.32,12.73,12.73,0,0,0,9.828,28a4.331,4.331,0,0,0,2.538-.63,2.208,2.208,0,0,0,.882-1.926,1.852,1.852,0,0,0-.81-1.566A7.915,7.915,0,0,0,10.3,22.838q-1.332-.45-2.988-1.026a13.593,13.593,0,0,1-2.052-.828,7.1,7.1,0,0,1-1.8-1.278,5.672,5.672,0,0,1-1.26-1.89,7.081,7.081,0,0,1-.468-2.736,7.678,7.678,0,0,1,.54-2.844A6.815,6.815,0,0,1,3.942,9.788a8.071,8.071,0,0,1,2.9-1.71,12.31,12.31,0,0,1,4.14-.63,16.809,16.809,0,0,1,2.61.18,14.07,14.07,0,0,1,2.178.522,15.656,15.656,0,0,1,2.124.882v5.616a13.611,13.611,0,0,0-1.854-1.278,12.828,12.828,0,0,0-2.142-.99,7.624,7.624,0,0,0-2.34-.432,6.515,6.515,0,0,0-1.98.216,2.886,2.886,0,0,0-1.4.81,2.041,2.041,0,0,0-.5,1.422A2.07,2.07,0,0,0,8.28,15.98a4.71,4.71,0,0,0,1.692.954q1.08.378,2.412.81A25.536,25.536,0,0,1,15.1,18.7a8.355,8.355,0,0,1,2.178,1.314,5.282,5.282,0,0,1,1.44,1.944,6.891,6.891,0,0,1,.5,2.772,7.867,7.867,0,0,1-1.008,3.942A7.155,7.155,0,0,1,15.3,31.478,9.776,9.776,0,0,1,10.62,32.5Zm21.1.036a11.757,11.757,0,0,1-4.464-.792,6.415,6.415,0,0,1-3.024-2.43,7.623,7.623,0,0,1-1.08-4.266V13.784h5.364V24.62a3.709,3.709,0,0,0,.774,2.574,3.2,3.2,0,0,0,2.466.846,3.186,3.186,0,0,0,2.484-.846,3.769,3.769,0,0,0,.756-2.574V13.784h5.04V25.052q0,3.888-2.232,5.688A9.424,9.424,0,0,1,31.716,32.54Zm21.42,0a22.855,22.855,0,0,1-3.006-.2,10.118,10.118,0,0,1-2.7-.72,4.826,4.826,0,0,1-1.926-1.44,3.767,3.767,0,0,1-.72-2.394V7.052H50.04v9.936L49.032,15.3a4.623,4.623,0,0,1,1.656-1.206,8.607,8.607,0,0,1,2.052-.63,10.541,10.541,0,0,1,1.728-.18,7.681,7.681,0,0,1,6.138,2.43q2.106,2.43,2.106,7.11a12.9,12.9,0,0,1-.72,4.608,7.316,7.316,0,0,1-2.016,2.988,8.007,8.007,0,0,1-3.024,1.62A13.6,13.6,0,0,1,53.136,32.54Zm-.072-4.464a4.452,4.452,0,0,0,2.52-.63,3.517,3.517,0,0,0,1.35-1.746,7.32,7.32,0,0,0,.414-2.556,8.244,8.244,0,0,0-.54-3.276A3.643,3.643,0,0,0,55.332,18.1a4.244,4.244,0,0,0-2.16-.54,7.815,7.815,0,0,0-1.584.18,5.172,5.172,0,0,0-1.548.576v8.064a1.293,1.293,0,0,0,.4,1.008,2.407,2.407,0,0,0,1.1.522A6.8,6.8,0,0,0,53.064,28.076ZM71.82,32.54a11.732,11.732,0,0,1-3.33-.414,27.607,27.607,0,0,1-2.61-.918V26.492q.756.5,1.692,1.026a9.71,9.71,0,0,0,2.07.846,8.674,8.674,0,0,0,2.394.324,2.815,2.815,0,0,0,1.818-.45,1.4,1.4,0,0,0,.522-1.1,1.158,1.158,0,0,0-.54-.99,4.783,4.783,0,0,0-1.4-.63q-.864-.252-1.836-.468a8.771,8.771,0,0,1-1.728-.558,5.355,5.355,0,0,1-1.548-1.026,4.813,4.813,0,0,1-1.1-1.6,5.823,5.823,0,0,1-.414-2.322,5.739,5.739,0,0,1,.684-2.934,5.543,5.543,0,0,1,1.8-1.89A7.666,7.666,0,0,1,70.7,13.694a9.7,9.7,0,0,1,2.52-.27,13.678,13.678,0,0,1,3.546.486,11.14,11.14,0,0,1,2.394,1.062v4.212q-1.224-.684-2.43-1.278a6.153,6.153,0,0,0-2.754-.594,3.591,3.591,0,0,0-2.016.432,1.344,1.344,0,0,0-.612,1.152,1.424,1.424,0,0,0,.414,1.08,2.939,2.939,0,0,0,1.1.63q.684.234,1.512.45.9.216,1.854.522a7.311,7.311,0,0,1,1.8.864A4.1,4.1,0,0,1,79.4,23.99a5.6,5.6,0,0,1,.522,2.61,5.272,5.272,0,0,1-1.188,3.51,6.317,6.317,0,0,1-2.97,1.872A13.375,13.375,0,0,1,71.82,32.54Zm19.4.18a6.562,6.562,0,0,1-4.716-1.494A5.605,5.605,0,0,1,84.96,27V17.888H82.3v-4.1H84.96v-5h5.616v5h4v4.1h-4v8.424a2.055,2.055,0,0,0,.4,1.386,1.7,1.7,0,0,0,1.332.45,4.269,4.269,0,0,0,2.268-.756V32a5.744,5.744,0,0,1-1.638.558A9.461,9.461,0,0,1,91.224,32.72Zm14.436-.18a15.144,15.144,0,0,1-3.114-.306,7.6,7.6,0,0,1-2.556-1.008,4.787,4.787,0,0,1-1.71-1.908,6.605,6.605,0,0,1-.612-3.006,5.968,5.968,0,0,1,.7-2.952,4.647,4.647,0,0,1,2.142-1.944,8.473,8.473,0,0,1,3.636-.684,11.087,11.087,0,0,1,2.376.252,9.743,9.743,0,0,1,2.07.684,5.665,5.665,0,0,1,1.458.936l.216,2.592a6.333,6.333,0,0,0-1.728-.684,8.884,8.884,0,0,0-2.16-.252,4.888,4.888,0,0,0-2.574.522A1.808,1.808,0,0,0,103,26.42a2.018,2.018,0,0,0,.4,1.224,2.53,2.53,0,0,0,1.062.828,3.457,3.457,0,0,0,1.386.288,9,9,0,0,0,2.574-.252.985.985,0,0,0,.738-1.008V20.8a2.708,2.708,0,0,0-1.062-2.394,5.224,5.224,0,0,0-3.006-.738,9.637,9.637,0,0,0-3.186.558,9,9,0,0,0-2.61,1.35V14.828a11.031,11.031,0,0,1,2.9-1.08,17.749,17.749,0,0,1,4.41-.5,14.058,14.058,0,0,1,1.908.144,10.229,10.229,0,0,1,2.088.522,6.56,6.56,0,0,1,1.926,1.1,5.319,5.319,0,0,1,1.422,1.836,6.341,6.341,0,0,1,.54,2.772l-.036,8.6a3.229,3.229,0,0,1-1.044,2.5,6.436,6.436,0,0,1-3.006,1.386A22.344,22.344,0,0,1,105.66,32.54Zm13.572-17.208a12.732,12.732,0,0,1,1.8-.738,22.406,22.406,0,0,1,2.448-.666q1.332-.288,2.682-.468a19.017,19.017,0,0,1,2.5-.18,12.237,12.237,0,0,1,4.176.63,5.165,5.165,0,0,1,2.646,2.034,6.905,6.905,0,0,1,.918,3.816V32H131.04V20.84a3.853,3.853,0,0,0-.2-1.26,2.488,2.488,0,0,0-1.674-1.638,5.147,5.147,0,0,0-1.656-.234,7.1,7.1,0,0,0-1.656.2,6.147,6.147,0,0,0-1.26.414V32h-5.364Zm30.456,17.136a11.537,11.537,0,0,1-3.672-.576,8.955,8.955,0,0,1-3.06-1.728,7.9,7.9,0,0,1-2.088-2.916,10.349,10.349,0,0,1-.756-4.1,11.949,11.949,0,0,1,.72-4.338,8.4,8.4,0,0,1,2-3.078,8.29,8.29,0,0,1,3.006-1.836,11.364,11.364,0,0,1,3.816-.612,15.85,15.85,0,0,1,3.042.306,12.41,12.41,0,0,1,2.754.846V19.04a21.172,21.172,0,0,0-2.466-.954,8.2,8.2,0,0,0-2.466-.378,5.589,5.589,0,0,0-3.654,1.134,4.5,4.5,0,0,0-1.386,3.69A5.93,5.93,0,0,0,146.7,26.6a5.23,5.23,0,0,0,4.068,1.368,7.241,7.241,0,0,0,2.574-.468,15.848,15.848,0,0,0,2.142-.972V31.1a12.917,12.917,0,0,1-2.628,1.008A12.51,12.51,0,0,1,149.688,32.468Zm17.784.072a10.054,10.054,0,0,1-4.842-1.134,8.036,8.036,0,0,1-3.276-3.24,10.187,10.187,0,0,1-1.17-5.022q0-4.752,2.358-7.362a8.63,8.63,0,0,1,6.75-2.61,8.347,8.347,0,0,1,4.878,1.3,7.413,7.413,0,0,1,2.718,3.78,17.97,17.97,0,0,1,.828,6.048h-13.86l-.576-3.42h10.008l-.792,1.692a7.963,7.963,0,0,0-.828-4.1,2.885,2.885,0,0,0-2.592-1.188,3.371,3.371,0,0,0-1.818.5A3.259,3.259,0,0,0,164,19.454a9.25,9.25,0,0,0-.45,3.222,5.838,5.838,0,0,0,1.242,4,5.058,5.058,0,0,0,3.978,1.4,8.658,8.658,0,0,0,2-.234,15.308,15.308,0,0,0,1.854-.558q.864-.324,1.476-.576v4.608a16.484,16.484,0,0,1-2.9.882A18,18,0,0,1,167.472,32.54Z" transform="translate(209 110)" fill="#f7f7ff"/>
    <g id="Group_167" data-name="Group 167" transform="translate(74)">
      <g id="Group_66" data-name="Group 66" transform="translate(32.511 53.898) rotate(-7)">
        <path id="Path_70" data-name="Path 70" d="M527.974,312.826c0,2.366.122,4.386-.072,6.371-.072.719-.942,1.309-1.438,1.956-.575-.719-1.56-1.323-1.654-2.071a50.566,50.566,0,0,1-.079-6.076h-7.909c-.381-2.675-.381-2.675,7.852-3.976v-7.2c3.02-1.23,3.422.237,3.351,2.38-.058,1.647,0,3.293,0,4.314,2.711,2.466,7.514-1.589,8.628,4.314Z" transform="translate(829.329 236.503) rotate(164)" fill="#89fc00"/>
        <path id="Path_69" data-name="Path 69" d="M533.123,377.015c-1.582.216-2.79.791-3.487.417q-7.837-4.249-15.466-8.873c-.546-.324-.561-1.546-.82-2.351.719-.165,1.683-.719,2.157-.439,5.314,2.912,10.577,5.925,15.818,8.981C531.886,375.059,532.188,375.793,533.123,377.015Z" transform="matrix(-0.438, 0.899, -0.899, -0.438, 798.367, -243.67)" fill="#a243ff"/>
      </g>
      <g id="Ellipse_13" data-name="Ellipse 13" transform="translate(282 84)" fill="none" stroke="#1fbbf9" stroke-width="2">
        <circle cx="6" cy="6" r="6" stroke="none"/>
        <circle cx="6" cy="6" r="5" fill="none"/>
      </g>
      <rect id="Rectangle_150" data-name="Rectangle 150" width="17" height="4" transform="matrix(-0.309, -0.951, 0.951, -0.309, 297.225, 114.702)" fill="#ff006e"/>
    </g>
  </g>
</svg>
