<svg xmlns="http://www.w3.org/2000/svg" width="178" height="75" viewBox="0 0 178 75">
  <g id="Group_295" data-name="Group 295" transform="translate(-209 -75)">
    <text id="Guided_Substance" data-name="Guided

Substance" transform="translate(209 110)" fill="#f7f7ff" font-size="36" font-family="MavenPro-Bold, Maven Pro" font-weight="700"><tspan x="0" y="0">Guided</tspan><tspan x="0" y="16"></tspan><tspan x="0" y="32">Substance</tspan></text>
    <g id="Group_167" data-name="Group 167" transform="translate(74)">
      <g id="Group_66" data-name="Group 66" transform="translate(32.511 53.898) rotate(-7)">
        <path id="Path_70" data-name="Path 70" d="M527.974,312.826c0,2.366.122,4.386-.072,6.371-.072.719-.942,1.309-1.438,1.956-.575-.719-1.56-1.323-1.654-2.071a50.566,50.566,0,0,1-.079-6.076h-7.909c-.381-2.675-.381-2.675,7.852-3.976v-7.2c3.02-1.23,3.422.237,3.351,2.38-.058,1.647,0,3.293,0,4.314,2.711,2.466,7.514-1.589,8.628,4.314Z" transform="translate(829.329 236.503) rotate(164)" fill="#89fc00"/>
        <path id="Path_69" data-name="Path 69" d="M533.123,377.015c-1.582.216-2.79.791-3.487.417q-7.837-4.249-15.466-8.873c-.546-.324-.561-1.546-.82-2.351.719-.165,1.683-.719,2.157-.439,5.314,2.912,10.577,5.925,15.818,8.981C531.886,375.059,532.188,375.793,533.123,377.015Z" transform="matrix(-0.438, 0.899, -0.899, -0.438, 798.367, -243.67)" fill="#a243ff"/>
      </g>
      <g id="Ellipse_13" data-name="Ellipse 13" transform="translate(282 84)" fill="none" stroke="#1fbbf9" stroke-width="2">
        <circle cx="6" cy="6" r="6" stroke="none"/>
        <circle cx="6" cy="6" r="5" fill="none"/>
      </g>
      <rect id="Rectangle_150" data-name="Rectangle 150" width="17" height="4" transform="matrix(-0.309, -0.951, 0.951, -0.309, 297.225, 114.702)" fill="#ff006e"/>
    </g>
  </g>
</svg>
