<svg xmlns="http://www.w3.org/2000/svg" width="260" height="98.473" viewBox="0 0 260 98.473">
  <g id="MDMA" transform="translate(-6.7 -2.531)">
    <path id="polygon3" d="M66.544,67.005l-.822.485-.822-.581v-37.3l.822-.63.822.485Z" transform="translate(1.223 0.556)" fill="#00bbf9"/>
    <path id="rect5" d="M70.54,32.258h1.649V64.076H70.54Z" transform="translate(1.348 0.624)" fill="#00bbf9"/>
    <path id="polygon7" d="M99.018,84.992v1.892L65.6,67.579l.1-.873.822-.485Z" transform="translate(1.244 1.341)" fill="#00bbf9"/>
    <path id="polygon9" d="M130.874,66.22l1.648.97-34.2,19.693V84.992Z" transform="translate(1.935 1.341)" fill="#00bbf9"/>
    <path id="polygon11" d="M125.5,62.753l.826,1.407L98.773,80.068l-.822-1.407Z" transform="translate(1.925 1.268)" fill="#00bbf9"/>
    <path id="polygon13" d="M130.2,29.465l.822-.485.822.485V67.977l-1.648-.97Z" transform="translate(2.612 0.555)" fill="#00bbf9"/>
    <path id="polygon15" d="M98.327,11.111V9.221L131.7,28.478v.92l-.822.485Z" transform="translate(1.935 0.138)" fill="#00bbf9"/>
    <path id="polygon17" d="M97.948,17.423l.822-1.455,27.553,15.908-.826,1.455Z" transform="translate(1.927 0.279)" fill="#00bbf9"/>
    <path id="polygon19" d="M66.522,29.882,65.7,29.4l-.1-.873,33.416-19.3v1.89Z" transform="translate(1.242 0.138)" fill="#00bbf9"/>
    <path id="polygon21" d="M164.331,9.221v1.89l-32.5,18.771-.822-.485v-.92Z" transform="translate(2.623 0.138)" fill="#00bbf9"/>
    <path id="polygon23" d="M196.913,28.478v.92l-.826.485L163.64,11.111V9.221Z" transform="translate(3.314 0.138)" fill="#00bbf9"/>
    <g id="g25" transform="translate(226.37 2.531)">
      <path id="path27" d="M227.631,11.11l2.213.557a7.443,7.443,0,0,1-2.493,4.149,6.86,6.86,0,0,1-4.4,1.429,7.892,7.892,0,0,1-4.378-1.1A6.849,6.849,0,0,1,216,12.967a11.38,11.38,0,0,1-.879-4.47,9.857,9.857,0,0,1,.995-4.545,6.807,6.807,0,0,1,2.826-2.947A8.253,8.253,0,0,1,222.982,0a6.809,6.809,0,0,1,4.2,1.275,6.619,6.619,0,0,1,2.374,3.586l-2.165.511a5.154,5.154,0,0,0-1.68-2.648,4.474,4.474,0,0,0-2.769-.829,5.371,5.371,0,0,0-3.206.921,4.859,4.859,0,0,0-1.811,2.473,9.988,9.988,0,0,0-.521,3.2,10.186,10.186,0,0,0,.617,3.712,4.614,4.614,0,0,0,1.923,2.37,5.382,5.382,0,0,0,2.826.785,4.727,4.727,0,0,0,3.132-1.069,5.478,5.478,0,0,0,1.731-3.172Z" transform="translate(-215.122 0.007)" fill="#00bbf9"/>
      <path id="path29" d="M232.294,16.955V.282h2.212V7.133h8.625V.282h2.213V16.956h-2.213V9.1h-8.625v7.852h-2.213Z" transform="translate(-214.764 0.01)" fill="#00bbf9"/>
    </g>
    <g id="g31" transform="translate(258.499 11.312)">
      <path id="path33" d="M246.591,17.841l1.531-.212a3.4,3.4,0,0,0,.9,1.88,2.24,2.24,0,0,0,1.559.575,2.5,2.5,0,0,0,1.842-.749,2.535,2.535,0,0,0,.746-1.858,2.343,2.343,0,0,0-.695-1.742,2.4,2.4,0,0,0-1.764-.686,4.453,4.453,0,0,0-1.088.171l.172-1.349a2.307,2.307,0,0,0,.248.017,3.168,3.168,0,0,0,1.766-.51,1.747,1.747,0,0,0,.786-1.574,1.854,1.854,0,0,0-.573-1.395,2.043,2.043,0,0,0-1.479-.553,2.1,2.1,0,0,0-1.5.565,2.829,2.829,0,0,0-.771,1.7l-1.531-.273a3.945,3.945,0,0,1,1.28-2.394,3.7,3.7,0,0,1,2.485-.85,4.086,4.086,0,0,1,1.886.438,3.176,3.176,0,0,1,1.319,1.2,3.073,3.073,0,0,1,.457,1.608,2.628,2.628,0,0,1-.435,1.473,2.976,2.976,0,0,1-1.287,1.055,2.921,2.921,0,0,1,1.726,1.062,3.217,3.217,0,0,1,.617,2.017,3.685,3.685,0,0,1-1.2,2.774,4.208,4.208,0,0,1-3.023,1.139,3.942,3.942,0,0,1-2.738-.979A3.784,3.784,0,0,1,246.591,17.841Z" transform="translate(-246.591 -8.596)" fill="#00bbf9"/>
    </g>
    <path id="polygon35" d="M220.187,14.541l.825,1.406-23.96,13.821-.822-.485v-.919Z" transform="translate(4 0.25)" fill="#00bbf9"/>
    <g id="g37" transform="translate(22.373 9.853)">
      <path id="path39" d="M15.348,16.014a9.051,9.051,0,0,1,2.229-6.5,7.581,7.581,0,0,1,5.755-2.349,7.984,7.984,0,0,1,4.162,1.1,7.215,7.215,0,0,1,2.826,3.076,9.98,9.98,0,0,1,.972,4.474,9.824,9.824,0,0,1-1.023,4.537,6.988,6.988,0,0,1-2.9,3.031,8.291,8.291,0,0,1-4.049,1.028A7.889,7.889,0,0,1,19.11,23.28a7.324,7.324,0,0,1-2.809-3.1,9.4,9.4,0,0,1-.953-4.162Zm2.274.028a6.676,6.676,0,0,0,1.621,4.746,5.332,5.332,0,0,0,4.067,1.734,5.329,5.329,0,0,0,4.1-1.751A7.076,7.076,0,0,0,29.021,15.8a8.533,8.533,0,0,0-.688-3.552A5.284,5.284,0,0,0,26.318,9.9a5.463,5.463,0,0,0-2.974-.835,5.647,5.647,0,0,0-4.033,1.608Q17.622,12.279,17.622,16.042Z" transform="translate(-15.348 -7.163)" fill="#00bbf9"/>
    </g>
    <g id="g41" transform="translate(22.373 72.131)">
      <path id="path43" d="M15.348,77a9.051,9.051,0,0,1,2.229-6.5,7.581,7.581,0,0,1,5.755-2.349,7.984,7.984,0,0,1,4.162,1.1,7.215,7.215,0,0,1,2.826,3.076,9.981,9.981,0,0,1,.975,4.472,9.824,9.824,0,0,1-1.023,4.537,6.988,6.988,0,0,1-2.9,3.031A8.291,8.291,0,0,1,23.321,85.4a7.889,7.889,0,0,1-4.208-1.137,7.324,7.324,0,0,1-2.809-3.1A9.4,9.4,0,0,1,15.348,77Zm2.274.028a6.676,6.676,0,0,0,1.621,4.746,5.332,5.332,0,0,0,4.067,1.734,5.329,5.329,0,0,0,4.1-1.751,7.076,7.076,0,0,0,1.609-4.968,8.533,8.533,0,0,0-.688-3.552,5.284,5.284,0,0,0-2.014-2.353,5.463,5.463,0,0,0-2.974-.835,5.647,5.647,0,0,0-4.033,1.608Q17.623,73.269,17.622,77.032Z" transform="translate(-15.348 -68.153)" fill="#00bbf9"/>
    </g>
    <path id="polygon45" d="M39.38,21.317l.533-1.551L66.154,28.3l.1.873-.822.63Z" transform="translate(0.689 0.36)" fill="#00bbf9"/>
    <path id="polygon47" d="M8.737,48.3H6.7l16.249-22.36,1.31.97Z" transform="translate(0 0.491)" fill="#00bbf9"/>
    <path id="polygon49" d="M25.033,70.246l-1.357.97L6.7,47.838H8.737Z" transform="translate(0 0.953)" fill="#00bbf9"/>
    <path id="polygon51" d="M65.434,66.126l.822.581-.1.873L39.436,76.311l-.536-1.6Z" transform="translate(0.682 1.339)" fill="#00bbf9"/>
    <g id="g53" transform="translate(176.837 60.493)">
      <path id="path55" d="M166.618,73.433V56.76h2.213v6.851h8.625V56.76h2.213V73.433h-2.213V65.581H168.83v7.852Z" transform="translate(-166.618 -56.76)" fill="#00bbf9"/>
      <path id="path57" d="M182.979,73.433V56.76h2.271l8.735,13.085V56.76h2.122V73.433h-2.27L185.1,60.348V73.433Z" transform="translate(-166.272 -56.76)" fill="#00bbf9"/>
    </g>
    <path id="polygon59" d="M197.067,57.742h-1.65V29.465l.826-.485.822.485Z" transform="translate(3.985 0.555)" fill="#00bbf9"/>
    <g id="g61" transform="translate(226.37 79.458)">
      <path id="path63" d="M227.631,86.446l2.213.557a7.443,7.443,0,0,1-2.493,4.149,6.86,6.86,0,0,1-4.4,1.429,7.892,7.892,0,0,1-4.378-1.1A6.849,6.849,0,0,1,216,88.3a11.38,11.38,0,0,1-.879-4.47,9.857,9.857,0,0,1,.992-4.546,6.807,6.807,0,0,1,2.826-2.947,8.253,8.253,0,0,1,4.035-1.007,6.809,6.809,0,0,1,4.2,1.275,6.619,6.619,0,0,1,2.374,3.586l-2.167.514a5.154,5.154,0,0,0-1.68-2.648,4.473,4.473,0,0,0-2.769-.829,5.371,5.371,0,0,0-3.206.921,4.86,4.86,0,0,0-1.811,2.473,9.988,9.988,0,0,0-.521,3.2,10.186,10.186,0,0,0,.617,3.712,4.614,4.614,0,0,0,1.923,2.37,5.382,5.382,0,0,0,2.826.785,4.727,4.727,0,0,0,3.132-1.069A5.478,5.478,0,0,0,227.631,86.446Z" transform="translate(-215.122 -75.33)" fill="#00bbf9"/>
      <path id="path65" d="M232.294,92.29V75.617h2.212v6.851h8.625V75.617h2.213V92.291h-2.213V84.438h-8.625V92.29Z" transform="translate(-214.764 -75.326)" fill="#00bbf9"/>
    </g>
    <g id="g67" transform="translate(258.499 88.238)">
      <path id="path69" d="M246.591,93.176l1.531-.212a3.4,3.4,0,0,0,.9,1.88,2.24,2.24,0,0,0,1.559.575,2.5,2.5,0,0,0,1.842-.749,2.535,2.535,0,0,0,.746-1.858,2.343,2.343,0,0,0-.695-1.742,2.4,2.4,0,0,0-1.764-.686,4.452,4.452,0,0,0-1.088.171l.172-1.349a2.315,2.315,0,0,0,.248.017,3.168,3.168,0,0,0,1.766-.51,1.747,1.747,0,0,0,.786-1.574,1.854,1.854,0,0,0-.573-1.395,2.044,2.044,0,0,0-1.479-.553,2.1,2.1,0,0,0-1.5.565,2.829,2.829,0,0,0-.771,1.7l-1.531-.273a3.945,3.945,0,0,1,1.28-2.394,3.7,3.7,0,0,1,2.484-.85,4.085,4.085,0,0,1,1.886.438,3.176,3.176,0,0,1,1.319,1.2,3.073,3.073,0,0,1,.457,1.608,2.628,2.628,0,0,1-.435,1.473,2.976,2.976,0,0,1-1.287,1.055,2.921,2.921,0,0,1,1.726,1.061,3.217,3.217,0,0,1,.617,2.017,3.684,3.684,0,0,1-1.2,2.774,4.208,4.208,0,0,1-3.023,1.139,3.942,3.942,0,0,1-2.738-.979,3.786,3.786,0,0,1-1.242-2.54Z" transform="translate(-246.591 -83.932)" fill="#00bbf9"/>
    </g>
    <path id="polygon71" d="M221.494,80.32l-.825,1.406-15.181-8.779.825-1.407Z" transform="translate(4.198 1.454)" fill="#00bbf9"/>
  </g>
</svg>
