<svg xmlns="http://www.w3.org/2000/svg" width="506.036" height="191.643" viewBox="0 0 506.036 191.643">
  <g id="MDMA" transform="translate(-6.701 -2.538)" style="mix-blend-mode: overlay;isolation: isolate">
    <path id="polygon3" d="M68.1,102.991l-1.6.944-1.6-1.131v-72.6l1.6-1.227,1.6.944Z" transform="translate(57.455 26.109)" fill="#fff"/>
    <path id="rect5" d="M70.54,32.258h3.21V94.186H70.54Z" transform="translate(63.035 29.346)" fill="#fff"/>
    <path id="polygon7" d="M130.641,102.755v3.682L65.6,68.865l.189-1.7,1.6-.944Z" transform="translate(58.158 62.88)" fill="#fff"/>
    <path id="polygon9" d="M161.673,66.22l3.208,1.888L98.327,106.437v-3.682Z" transform="translate(90.472 62.88)" fill="#fff"/>
    <path id="polygon11" d="M151.566,62.753l1.608,2.738L99.551,96.453l-1.6-2.738Z" transform="translate(90.098 59.457)" fill="#fff"/>
    <path id="polygon13" d="M130.2,29.924l1.6-.944,1.6.944v74.955l-3.208-1.888Z" transform="translate(121.945 26.109)" fill="#fff"/>
    <path id="polygon15" d="M98.327,12.9V9.221L163.277,46.7V48.49l-1.6.944Z" transform="translate(90.472 6.599)" fill="#fff"/>
    <path id="polygon17" d="M97.948,18.8l1.6-2.832L153.174,46.93l-1.608,2.832Z" transform="translate(90.098 13.259)" fill="#fff"/>
    <path id="polygon19" d="M67.392,49.434l-1.6-.944-.189-1.7L130.641,9.221V12.9Z" transform="translate(58.158 6.599)" fill="#fff"/>
    <path id="polygon21" d="M195.861,9.221V12.9L132.612,49.434l-1.6-.944V46.7Z" transform="translate(122.742 6.599)" fill="#fff"/>
    <path id="polygon23" d="M228.4,46.7V48.49l-1.608.944L163.64,12.9V9.221Z" transform="translate(154.963 6.599)" fill="#fff"/>
    <g id="g25" transform="translate(434.253 2.538)">
      <path id="path27" d="M239.468,21.631l4.307,1.084a14.487,14.487,0,0,1-4.852,8.075,13.351,13.351,0,0,1-8.564,2.781,15.361,15.361,0,0,1-8.521-2.137,13.331,13.331,0,0,1-5-6.189,22.15,22.15,0,0,1-1.711-8.7A19.185,19.185,0,0,1,217.063,7.7a13.248,13.248,0,0,1,5.5-5.736A16.063,16.063,0,0,1,230.419,0a13.252,13.252,0,0,1,8.175,2.481,12.883,12.883,0,0,1,4.62,6.98L239,10.456a10.031,10.031,0,0,0-3.27-5.154,8.707,8.707,0,0,0-5.39-1.614,10.453,10.453,0,0,0-6.24,1.792,9.458,9.458,0,0,0-3.525,4.813,19.439,19.439,0,0,0-1.014,6.229,19.825,19.825,0,0,0,1.2,7.224,8.981,8.981,0,0,0,3.742,4.612,10.476,10.476,0,0,0,5.5,1.527,9.2,9.2,0,0,0,6.095-2.081A10.662,10.662,0,0,0,239.468,21.631Z" transform="translate(-215.131 0)" fill="#fff"/>
      <path id="path29" d="M232.294,32.732V.282H236.6V13.617h16.787V.282h4.307V32.734h-4.307V17.452H236.6V32.734h-4.307Z" transform="translate(-198.185 0.279)" fill="#fff"/>
    </g>
    <g id="g31" transform="translate(496.776 19.621)">
      <path id="path33" d="M246.591,26.589l2.979-.413a6.611,6.611,0,0,0,1.752,3.659,4.359,4.359,0,0,0,3.034,1.12,4.868,4.868,0,0,0,3.585-1.458,4.933,4.933,0,0,0,1.452-3.617,4.561,4.561,0,0,0-1.352-3.391,4.68,4.68,0,0,0-3.434-1.335,8.666,8.666,0,0,0-2.118.332l.334-2.626a4.492,4.492,0,0,0,.483.034,6.166,6.166,0,0,0,3.438-.993,3.4,3.4,0,0,0,1.529-3.064,3.609,3.609,0,0,0-1.116-2.715,3.977,3.977,0,0,0-2.879-1.076,4.08,4.08,0,0,0-2.913,1.1,5.506,5.506,0,0,0-1.5,3.3l-2.979-.531a7.678,7.678,0,0,1,2.492-4.66A7.2,7.2,0,0,1,254.214,8.6a7.952,7.952,0,0,1,3.67.853,6.182,6.182,0,0,1,2.568,2.326,5.981,5.981,0,0,1,.889,3.13,5.115,5.115,0,0,1-.846,2.866,5.792,5.792,0,0,1-2.505,2.054,5.686,5.686,0,0,1,3.359,2.066,6.262,6.262,0,0,1,1.2,3.925,7.171,7.171,0,0,1-2.328,5.4,8.19,8.19,0,0,1-5.883,2.217,7.673,7.673,0,0,1-5.328-1.905A7.364,7.364,0,0,1,246.591,26.589Z" transform="translate(-246.591 -8.596)" fill="#fff"/>
    </g>
    <path id="polygon35" d="M242.858,14.541l1.606,2.736-46.634,26.9-1.6-.944V41.445Z" transform="translate(187.138 11.852)" fill="#fff"/>
    <g id="g37" transform="translate(37.204 16.792)">
      <path id="path39" d="M15.348,24.389q0-8.08,4.339-12.646a14.754,14.754,0,0,1,11.2-4.571,15.539,15.539,0,0,1,8.1,2.147,14.042,14.042,0,0,1,5.5,5.987,19.425,19.425,0,0,1,1.892,8.708,19.121,19.121,0,0,1-1.992,8.83,13.6,13.6,0,0,1-5.645,5.9,16.137,16.137,0,0,1-7.881,2,15.354,15.354,0,0,1-8.19-2.213,14.254,14.254,0,0,1-5.468-6.042A18.292,18.292,0,0,1,15.348,24.389Zm4.426.055q0,5.862,3.155,9.238a10.378,10.378,0,0,0,7.915,3.374,10.371,10.371,0,0,0,7.983-3.408q3.132-3.407,3.132-9.669a16.608,16.608,0,0,0-1.339-6.914,10.284,10.284,0,0,0-3.92-4.58,10.633,10.633,0,0,0-5.789-1.626,10.991,10.991,0,0,0-7.849,3.13Q19.775,17.12,19.774,24.444Z" transform="translate(-15.348 -7.173)" fill="#fff"/>
    </g>
    <g id="g41" transform="translate(37.204 138.004)">
      <path id="path43" d="M15.348,85.379q0-8.08,4.339-12.646a14.754,14.754,0,0,1,11.2-4.571,15.539,15.539,0,0,1,8.1,2.147,14.042,14.042,0,0,1,5.5,5.987A19.425,19.425,0,0,1,46.384,85a19.121,19.121,0,0,1-1.992,8.83,13.6,13.6,0,0,1-5.645,5.9,16.137,16.137,0,0,1-7.881,2,15.354,15.354,0,0,1-8.19-2.213,14.254,14.254,0,0,1-5.468-6.042A18.293,18.293,0,0,1,15.348,85.379Zm4.426.055q0,5.862,3.155,9.238a10.378,10.378,0,0,0,7.915,3.374,10.371,10.371,0,0,0,7.983-3.408q3.132-3.407,3.132-9.669a16.608,16.608,0,0,0-1.339-6.914,10.284,10.284,0,0,0-3.92-4.58,10.633,10.633,0,0,0-5.789-1.626,10.991,10.991,0,0,0-7.849,3.13Q19.775,78.11,19.774,85.434Z" transform="translate(-15.348 -68.163)" fill="#fff"/>
    </g>
    <path id="polygon45" d="M39.38,22.785l1.038-3.019L91.491,36.381l.189,1.7-1.6,1.227Z" transform="translate(32.267 17.011)" fill="#fff"/>
    <path id="polygon47" d="M10.665,69.46H6.7L38.325,25.941l2.549,1.888Z" transform="translate(0 23.108)" fill="#fff"/>
    <path id="polygon49" d="M42.382,91.45l-2.641,1.888L6.7,47.838h3.965Z" transform="translate(0 44.73)" fill="#fff"/>
    <path id="polygon51" d="M90.544,66.126l1.6,1.131-.189,1.7L39.943,85.95,38.9,82.833Z" transform="translate(31.798 62.787)" fill="#fff"/>
    <g id="g53" transform="translate(337.837 115.342)">
      <path id="path55" d="M166.618,89.211V56.76h4.307V70.095h16.786V56.76h4.307V89.211h-4.307V73.929H170.924V89.211Z" transform="translate(-166.618 -56.76)" fill="#fff"/>
      <path id="path57" d="M182.979,89.211V56.76H187.4l17,25.468V56.76h4.131V89.211h-4.418l-17-25.468V89.211Z" transform="translate(-150.463 -56.76)" fill="#fff"/>
    </g>
    <path id="polygon59" d="M198.629,84.96h-3.212V29.924l1.608-.944,1.6.944Z" transform="translate(186.339 26.109)" fill="#fff"/>
    <g id="g61" transform="translate(434.253 152.259)">
      <path id="path63" d="M239.468,96.966l4.307,1.084a14.487,14.487,0,0,1-4.852,8.075,13.351,13.351,0,0,1-8.564,2.781,15.361,15.361,0,0,1-8.521-2.137,13.331,13.331,0,0,1-5-6.189,22.15,22.15,0,0,1-1.711-8.7,19.185,19.185,0,0,1,1.931-8.847,13.248,13.248,0,0,1,5.5-5.736,16.063,16.063,0,0,1,7.854-1.96,13.252,13.252,0,0,1,8.175,2.481,12.883,12.883,0,0,1,4.62,6.98l-4.218,1a10.031,10.031,0,0,0-3.27-5.154,8.706,8.706,0,0,0-5.39-1.614,10.453,10.453,0,0,0-6.24,1.792,9.458,9.458,0,0,0-3.525,4.813,19.439,19.439,0,0,0-1.014,6.229,19.825,19.825,0,0,0,1.2,7.224,8.981,8.981,0,0,0,3.742,4.612,10.476,10.476,0,0,0,5.5,1.527,9.2,9.2,0,0,0,6.095-2.081A10.662,10.662,0,0,0,239.468,96.966Z" transform="translate(-215.131 -75.335)" fill="#fff"/>
      <path id="path65" d="M232.294,108.067V75.617H236.6V88.952h16.787V75.617h4.307v32.452h-4.307V92.785H236.6v15.282Z" transform="translate(-198.185 -75.056)" fill="#fff"/>
    </g>
    <g id="g67" transform="translate(496.776 169.342)">
      <path id="path69" d="M246.591,101.924l2.979-.413a6.611,6.611,0,0,0,1.752,3.659,4.359,4.359,0,0,0,3.034,1.12,4.868,4.868,0,0,0,3.585-1.458,4.933,4.933,0,0,0,1.452-3.617,4.561,4.561,0,0,0-1.352-3.391,4.68,4.68,0,0,0-3.434-1.335,8.666,8.666,0,0,0-2.118.332l.334-2.626a4.5,4.5,0,0,0,.483.034,6.166,6.166,0,0,0,3.438-.993,3.4,3.4,0,0,0,1.529-3.064,3.609,3.609,0,0,0-1.116-2.715,3.977,3.977,0,0,0-2.879-1.076,4.08,4.08,0,0,0-2.913,1.1,5.506,5.506,0,0,0-1.5,3.3l-2.979-.531a7.678,7.678,0,0,1,2.492-4.66,7.2,7.2,0,0,1,4.835-1.654,7.951,7.951,0,0,1,3.67.853,6.182,6.182,0,0,1,2.568,2.326,5.981,5.981,0,0,1,.889,3.13,5.115,5.115,0,0,1-.846,2.866,5.792,5.792,0,0,1-2.505,2.054,5.686,5.686,0,0,1,3.359,2.066,6.262,6.262,0,0,1,1.2,3.925,7.171,7.171,0,0,1-2.328,5.4,8.19,8.19,0,0,1-5.883,2.217,7.673,7.673,0,0,1-5.328-1.905A7.368,7.368,0,0,1,246.591,101.924Z" transform="translate(-246.591 -83.931)" fill="#fff"/>
    </g>
    <path id="polygon71" d="M236.641,88.628l-1.606,2.737L205.488,74.279l1.606-2.738Z" transform="translate(196.284 68.134)" fill="#fff"/>
  </g>
</svg>
