<svg xmlns="http://www.w3.org/2000/svg" width="232.75" height="215.284" viewBox="0 0 232.75 215.284">
  <g id="Psilocybin" transform="translate(-2.3 -2.716)">
    <g id="Group_76" data-name="Group 76" transform="translate(2.3 109.699)">
      <path id="Path_149" data-name="Path 149" d="M1.7,39.651,0,40.6V0L1.7.95Z" fill="#ff006e"/>
    </g>
    <g id="Group_77" data-name="Group 77" transform="translate(8.25 113.6)">
      <path id="Path_150" data-name="Path 150" d="M1.7,32.8H0V0H1.7Z" fill="#ff006e"/>
    </g>
    <g id="Group_78" data-name="Group 78" transform="translate(2.3 149.35)">
      <path id="Path_151" data-name="Path 151" d="M35.2,19.3v1l-.75.55L0,.95,1.7,0Z" fill="#ff006e"/>
    </g>
    <g id="Group_79" data-name="Group 79" transform="translate(37.5 149.35)">
      <path id="Path_152" data-name="Path 152" d="M33.5,0l.85.5-.1,1L.949,20.75,0,20.3v-1Z" fill="#ff006e"/>
    </g>
    <g id="Group_80" data-name="Group 80" transform="translate(37.05 145.649)">
      <path id="Path_153" data-name="Path 153" d="M28.4,0l.851,1.5L.85,17.851,0,16.4Z" fill="#ff006e"/>
    </g>
    <g id="Group_81" data-name="Group 81" transform="translate(71 110.199)">
      <path id="Path_154" data-name="Path 154" d="M0,.45.85,0,1.7.45v38.8l-.85.4-.85-.5Z" fill="#ff006e"/>
    </g>
    <g id="Group_82" data-name="Group 82" transform="translate(37.5 89.35)">
      <path id="Path_155" data-name="Path 155" d="M0,2V0L34.35,19.849v1l-.85.45Z" fill="#ff006e"/>
    </g>
    <g id="Group_83" data-name="Group 83" transform="translate(37.05 96.5)">
      <path id="Path_156" data-name="Path 156" d="M0,1.449.85,0l28.4,16.4L28.4,17.85Z" fill="#ff006e"/>
    </g>
    <g id="Group_84" data-name="Group 84" transform="translate(2.3 89.35)">
      <path id="Path_157" data-name="Path 157" d="M1.7,21.3,0,20.349,35.2,0V2Z" fill="#ff006e"/>
    </g>
    <g id="Group_85" data-name="Group 85" transform="translate(21.742 200.504)">
      <path id="Path_158" data-name="Path 158" d="M11.231,9.528V17.5h2.233V0H11.231V7.56h-9V0H0V17.5H2.256V9.528Z" fill="#ff006e" fill-rule="evenodd"/>
    </g>
    <g id="Group_86" data-name="Group 86" transform="translate(38.824 200.504)">
      <path id="Path_159" data-name="Path 159" d="M13.68,0H11.567V14.3L2.424,0H0V17.5H2.111V3.312L11.16,17.5H13.68Z" fill="#ff006e" fill-rule="evenodd"/>
    </g>
    <g id="Group_87" data-name="Group 87" transform="translate(36.75 169.649)">
      <path id="Path_160" data-name="Path 160" d="M7.55,28l-1.65.351L0,.55.75,0,1.7.451Z" fill="#ff006e"/>
    </g>
    <g id="Group_88" data-name="Group 88" transform="translate(54.5 207.6)">
      <path id="Path_161" data-name="Path 161" d="M30.149,4.049,31.2,5.9,0,1.7.2,0Z" fill="#ff006e"/>
    </g>
    <g id="Group_89" data-name="Group 89" transform="translate(84.649 176.35)">
      <path id="Path_162" data-name="Path 162" d="M15.6.25,16.651,0l.6.75L1.05,37.15,0,35.3Z" fill="#ff006e"/>
    </g>
    <g id="Group_90" data-name="Group 90" transform="translate(80.699 177.55)">
      <path id="Path_163" data-name="Path 163" d="M12.65,0,14.2.7,1.551,29,0,28.3Z" fill="#ff006e"/>
    </g>
    <g id="Group_91" data-name="Group 91" transform="translate(71.75 149.449)">
      <path id="Path_164" data-name="Path 164" d="M0,1.4.1.4.949,0,29.8,26l-.25.9-1.05.25Z" fill="#ff006e"/>
    </g>
    <g id="Group_92" data-name="Group 92" transform="translate(101.3 167.199)">
      <path id="Path_165" data-name="Path 165" d="M39.05,0,38.5,1.851.6,9.9,0,9.151l.25-.9Z" fill="#ff006e"/>
    </g>
    <g id="Group_93" data-name="Group 93" transform="translate(139.8 167.199)">
      <path id="Path_166" data-name="Path 166" d="M28.6,28l-.549,1.9L0,1.851.55,0Z" fill="#ff006e"/>
    </g>
    <g id="Group_94" data-name="Group 94" transform="translate(199.574 177.754)">
      <path id="Path_167" data-name="Path 167" d="M13.68,0H11.568V14.3L2.424,0H0V17.5H2.112V3.312L11.16,17.5h2.52Z" fill="#ff006e" fill-rule="evenodd"/>
    </g>
    <g id="Group_95" data-name="Group 95" transform="translate(167.85 187.699)">
      <path id="Path_168" data-name="Path 168" d="M28.549,0l.4,1.651L0,9.4.549,7.5Z" fill="#ff006e"/>
    </g>
    <g id="Group_96" data-name="Group 96" transform="translate(208.5 147.35)">
      <path id="Path_169" data-name="Path 169" d="M7.35,0,9,.45,1.6,28,0,27.6Z" fill="#ff006e"/>
    </g>
    <g id="Group_97" data-name="Group 97" transform="translate(97.662 81.966)">
      <path id="Path_170" data-name="Path 170" d="M8.424,0C3.408,0,0,3.7,0,9.168s3.408,9.168,8.448,9.168a8.29,8.29,0,0,0,5.424-1.848A9.463,9.463,0,0,0,16.9,9.313C16.9,3.672,13.56,0,8.424,0Zm0,1.968c3.792,0,6.24,2.881,6.24,7.3,0,4.224-2.52,7.1-6.216,7.1-3.72,0-6.216-2.88-6.216-7.2S4.728,1.968,8.424,1.968Z" fill="#ff006e" fill-rule="evenodd"/>
    </g>
    <g id="Group_98" data-name="Group 98" transform="translate(71.85 95.25)">
      <path id="Path_171" data-name="Path 171" d="M24.15,0,25,1.5.85,15.4,0,14.949v-1Z" fill="#ff006e"/>
    </g>
    <g id="Group_99" data-name="Group 99" transform="translate(215.5 194.949)">
      <path id="Path_172" data-name="Path 172" d="M19.55,18.4l-1.2,1.2L0,1.2,1.2,0Z" fill="#ff006e"/>
    </g>
    <g id="Group_100" data-name="Group 100" transform="translate(99.934 42.754)">
      <path id="Path_173" data-name="Path 173" d="M2.232,10.08h5.5a4.8,4.8,0,0,0,3.384-1.248,4.571,4.571,0,0,0,1.512-3.7C12.624,1.848,10.68,0,7.224,0H0V17.5H2.232Zm0-1.968V1.968H6.888C9.024,1.968,10.3,3.12,10.3,5.04S9.024,8.112,6.888,8.112Z" fill="#ff006e" fill-rule="evenodd"/>
    </g>
    <g id="Group_101" data-name="Group 101" transform="translate(105.3 62.35)">
      <path id="Path_174" data-name="Path 174" d="M0,0H1.7V17.7H0Z" fill="#ff006e"/>
    </g>
    <g id="Group_102" data-name="Group 102" transform="translate(58.162 42.466)">
      <path id="Path_175" data-name="Path 175" d="M8.424,0C3.408,0,0,3.7,0,9.168s3.408,9.168,8.448,9.168a8.291,8.291,0,0,0,5.424-1.848A9.464,9.464,0,0,0,16.9,9.313C16.9,3.672,13.56,0,8.424,0Zm0,1.968c3.792,0,6.24,2.881,6.24,7.3,0,4.224-2.52,7.1-6.216,7.1-3.721,0-6.217-2.88-6.217-7.2S4.727,1.968,8.424,1.968Z" fill="#ff006e" fill-rule="evenodd"/>
    </g>
    <g id="Group_103" data-name="Group 103" transform="translate(76.949 52.85)">
      <path id="Path_176" data-name="Path 176" d="M0,1.7V0H20.351V1.7Z" fill="#ff006e"/>
    </g>
    <g id="Group_104" data-name="Group 104" transform="translate(76.949 46.899)">
      <path id="Path_177" data-name="Path 177" d="M0,1.7V0H20.351V1.7Z" fill="#ff006e"/>
    </g>
    <g id="Group_105" data-name="Group 105" transform="translate(137.412 42.466)">
      <path id="Path_178" data-name="Path 178" d="M8.424,0C3.408,0,0,3.7,0,9.168s3.408,9.168,8.448,9.168a8.29,8.29,0,0,0,5.424-1.848A9.463,9.463,0,0,0,16.9,9.313C16.9,3.672,13.56,0,8.424,0Zm0,1.968c3.792,0,6.24,2.881,6.24,7.3,0,4.224-2.52,7.1-6.216,7.1-3.72,0-6.216-2.88-6.216-7.2S4.728,1.968,8.424,1.968Z" fill="#ff006e" fill-rule="evenodd"/>
    </g>
    <g id="Group_106" data-name="Group 106" transform="translate(155.198 45.958)">
      <path id="Path_179" data-name="Path 179" d="M0,0V.99H9.432V0Z" fill="#ff006e" fill-rule="evenodd"/>
    </g>
    <g id="Group_107" data-name="Group 107" transform="translate(114.949 49.85)">
      <path id="Path_180" data-name="Path 180" d="M20.4,0V1.7H0V0Z" fill="#ff006e"/>
    </g>
    <g id="Group_108" data-name="Group 108" transform="translate(97.662 2.716)">
      <path id="Path_181" data-name="Path 181" d="M8.424,0C3.408,0,0,3.7,0,9.168s3.408,9.168,8.448,9.168a8.29,8.29,0,0,0,5.424-1.848A9.463,9.463,0,0,0,16.9,9.312C16.9,3.672,13.56,0,8.424,0Zm0,1.968c3.792,0,6.24,2.881,6.24,7.3,0,4.224-2.52,7.1-6.216,7.1-3.72,0-6.216-2.88-6.216-7.2S4.728,1.968,8.424,1.968Z" fill="#ff006e" fill-rule="evenodd"/>
    </g>
    <g id="Group_109" data-name="Group 109" transform="translate(117.492 3.004)">
      <path id="Path_182" data-name="Path 182" d="M11.232,9.528V17.5h2.232V0H11.232V7.561h-9V0H0V17.5H2.256V9.528Z" fill="#ff006e" fill-rule="evenodd"/>
    </g>
    <g id="Group_110" data-name="Group 110" transform="translate(105.3 23)">
      <path id="Path_183" data-name="Path 183" d="M0,0H1.7V17.7H0Z" fill="#ff006e"/>
    </g>
  </g>
</svg>
