<svg xmlns="http://www.w3.org/2000/svg" xmlns:xlink="http://www.w3.org/1999/xlink" width="312.901" height="162.866" viewBox="0 0 312.901 162.866">
  <defs>
    <clipPath id="clip-path">
      <path id="Path_130" data-name="Path 130" d="M0,0H312.9V162.866H0Z" fill="#89fc00"/>
    </clipPath>
  </defs>
  <g id="Background" transform="translate(-5.25 -5)">
    <g id="Group_75" data-name="Group 75" transform="translate(5.25 5)" clip-path="url(#clip-path)">
      <path id="Path_80" data-name="Path 80" d="M0,0V28.967" transform="translate(30.983 51.24)" fill="none" stroke="#89fc00" stroke-linecap="round" stroke-width="0.6"/>
      <path id="Path_81" data-name="Path 81" d="M0,0,24.972,14.236" transform="translate(30.983 80.207)" fill="none" stroke="#89fc00" stroke-linecap="round" stroke-width="0.6"/>
      <path id="Path_82" data-name="Path 82" d="M0,14.236,24.972,0" transform="translate(55.955 80.207)" fill="none" stroke="#89fc00" stroke-linecap="round" stroke-width="0.6"/>
      <path id="Path_83" data-name="Path 83" d="M0,28.967V0" transform="translate(80.927 51.24)" fill="none" stroke="#89fc00" stroke-linecap="round" stroke-width="0.6"/>
      <path id="Path_84" data-name="Path 84" d="M24.972,14.232,0,0" transform="translate(55.955 37.008)" fill="none" stroke="#89fc00" stroke-linecap="round" stroke-width="0.6"/>
      <path id="Path_85" data-name="Path 85" d="M18.729,10.738,0,0" transform="translate(56.455 43.251)" fill="none" stroke="#89fc00" stroke-linecap="round" stroke-width="0.6"/>
      <path id="Path_86" data-name="Path 86" d="M0,14.232,24.972,0" transform="translate(30.983 37.008)" fill="none" stroke="#89fc00" stroke-linecap="round" stroke-width="0.6"/>
      <path id="Path_87" data-name="Path 87" d="M10.431,9.056l1.967.422a6.865,6.865,0,0,1-2.089,3.577,5.442,5.442,0,0,1-3.666,1.228,6.54,6.54,0,0,1-3.674-.9A4.8,4.8,0,0,1,.823,10.746,8.144,8.144,0,0,1,.091,7.04,6.938,6.938,0,0,1,.9,3.278,5.343,5.343,0,0,1,3.22.839,8.016,8.016,0,0,1,6.521,0,5.933,5.933,0,0,1,9.967,1.122a7.143,7.143,0,0,1,1.943,3.13l-1.967.391A5.831,5.831,0,0,0,8.618,2.618a4.3,4.3,0,0,0-2.187-.641A5.307,5.307,0,0,0,3.9,2.682a3.775,3.775,0,0,0-1.431,1.9,6.066,6.066,0,0,0-.415,2.447,5.4,5.4,0,0,0,.5,2.861,2.951,2.951,0,0,0,1.577,1.821,3.263,3.263,0,0,0,2.317.6,3.386,3.386,0,0,0,2.553-.82A3.95,3.95,0,0,0,10.431,9.056Z" transform="translate(49.857)" fill="#89fc00" fill-rule="evenodd"/>
      <path id="Path_88" data-name="Path 88" d="M0,14.284V0H1.967V5.423H9.356V0h1.967V14.284H9.356V7.39H1.967v6.894Z" transform="translate(66.925)" fill="#89fc00" fill-rule="evenodd"/>
      <path id="Path_89" data-name="Path 89" d="M0,7.852H1.5A1.564,1.564,0,0,0,2.073,9c.181.329.669.35,1.244.35a1.523,1.523,0,0,0,1.455-.576A2.5,2.5,0,0,0,5.235,7.34,2.735,2.735,0,0,0,4.723,6a2.152,2.152,0,0,0-1.309-.537c-.217.06-.486.048-.8.146l.122-1.122c-.045.046.132.008.171.008A1.556,1.556,0,0,0,4,4.12c.3-.094.488-.645.488-1.178a1.533,1.533,0,0,0-.4-1.032A1.585,1.585,0,0,0,3.065,1.5c-.476.169-.764.1-1.04.283a1.219,1.219,0,0,0-.528.839H0A3.186,3.186,0,0,1,1.032.691a3.323,3.323,0,0,1,2-.691,7.529,7.529,0,0,1,1.52.375A2.952,2.952,0,0,1,5.617,1.382a3.345,3.345,0,0,1,.366,1.365A4.216,4.216,0,0,1,5.609,4,2.6,2.6,0,0,1,4.5,4.894,3.73,3.73,0,0,1,6.089,5.8,2.749,2.749,0,0,1,6.731,7.51a3.332,3.332,0,0,1-.984,2.366,2.976,2.976,0,0,1-2.479.968,2.97,2.97,0,0,1-2.244-.83A2.817,2.817,0,0,1,0,7.852Z" transform="translate(81.924 8.185)" fill="#89fc00" fill-rule="evenodd"/>
      <path id="Path_90" data-name="Path 90" d="M0,19.478V0" transform="translate(55.955 17.53)" fill="none" stroke="#89fc00" stroke-linecap="round" stroke-width="0.6"/>
      <path id="Path_91" data-name="Path 91" d="M0,0,24.723,14.236" transform="translate(80.927 80.207)" fill="none" stroke="#89fc00" stroke-linecap="round" stroke-width="0.6"/>
      <path id="Path_92" data-name="Path 92" d="M0,28.718V0" transform="translate(105.649 94.443)" fill="none" stroke="#89fc00" stroke-linecap="round" stroke-width="0.6"/>
      <path id="Path_93" data-name="Path 93" d="M0,21.474V0" transform="translate(110.893 98.189)" fill="none" stroke="#89fc00" stroke-linecap="round" stroke-width="0.6"/>
      <path id="Path_94" data-name="Path 94" d="M.084,7.325A6.962,6.962,0,0,1,1.938,1.944,6.714,6.714,0,0,1,6.742,0,7.945,7.945,0,0,1,10.2.92,7.248,7.248,0,0,1,12.57,3.465a11.765,11.765,0,0,1,.813,3.706,8.711,8.711,0,0,1-.862,3.754A6.174,6.174,0,0,1,10.1,13.439a5.982,5.982,0,0,1-3.365.845,6.349,6.349,0,0,1-3.512-.943,4.691,4.691,0,0,1-2.341-2.57A6.543,6.543,0,0,1,.084,7.325Zm1.967.008a4.427,4.427,0,0,0,1.333,3.65,4.252,4.252,0,0,0,3.341,1.332,4.179,4.179,0,0,0,3.365-1.348,5.217,5.217,0,0,0,1.317-3.812,9.064,9.064,0,0,0-.569-2.732,6.52,6.52,0,0,0-1.65-1.8A5.821,5.821,0,0,0,6.75,1.977,5.162,5.162,0,0,0,3.434,3.211C2.454,4.079,2.052,5.4,2.052,7.333Z" transform="translate(74.335 129.354)" fill="#89fc00" fill-rule="evenodd"/>
      <path id="Path_95" data-name="Path 95" d="M0,8.49,14.234,0" transform="translate(91.415 123.161)" fill="none" stroke="#89fc00" stroke-linecap="round" stroke-width="0.6"/>
      <path id="Path_96" data-name="Path 96" d="M0,0,13.236,7.741" transform="translate(55.955 123.161)" fill="none" stroke="#89fc00" stroke-linecap="round" stroke-width="0.6"/>
      <path id="Path_97" data-name="Path 97" d="M0,0V28.718" transform="translate(55.955 94.443)" fill="none" stroke="#89fc00" stroke-linecap="round" stroke-width="0.6"/>
      <path id="Path_98" data-name="Path 98" d="M10.431,9.056l1.967.422a6.864,6.864,0,0,1-2.089,3.577,5.442,5.442,0,0,1-3.666,1.228,6.54,6.54,0,0,1-3.674-.9A4.8,4.8,0,0,1,.822,10.748,8.158,8.158,0,0,1,.091,7.04,6.934,6.934,0,0,1,.9,3.278,5.341,5.341,0,0,1,3.221.839,8.047,8.047,0,0,1,6.521,0,5.934,5.934,0,0,1,9.967,1.124,7.123,7.123,0,0,1,11.91,4.251l-1.967.391A5.848,5.848,0,0,0,8.618,2.618a4.3,4.3,0,0,0-2.187-.641A5.283,5.283,0,0,0,3.9,2.684a3.764,3.764,0,0,0-1.431,1.9,6.047,6.047,0,0,0-.415,2.445,5.4,5.4,0,0,0,.5,2.861,2.951,2.951,0,0,0,1.577,1.821,3.262,3.262,0,0,0,2.317.6,3.377,3.377,0,0,0,2.553-.82A3.938,3.938,0,0,0,10.431,9.056Z" transform="translate(25.133 129.354)" fill="#89fc00" fill-rule="evenodd"/>
      <path id="Path_99" data-name="Path 99" d="M0,14.284V0H1.967V5.423H9.356V0h1.967V14.284H9.356V7.39H1.967v6.894Z" transform="translate(0 129.354)" fill="#89fc00" fill-rule="evenodd"/>
      <path id="Path_100" data-name="Path 100" d="M0,7.854H1.5A1.563,1.563,0,0,0,2.073,9c.181.331.668.35,1.244.35a1.519,1.519,0,0,0,1.455-.576A2.5,2.5,0,0,0,5.235,7.34,2.735,2.735,0,0,0,4.723,6a2.151,2.151,0,0,0-1.309-.537c-.217.06-.486.05-.8.146l.122-1.122c-.045.046.132.008.171.008A1.563,1.563,0,0,0,4,4.122c.3-.094.488-.647.488-1.18a1.535,1.535,0,0,0-.4-1.032A1.585,1.585,0,0,0,3.064,1.5c-.476.169-.764.1-1.04.285a1.215,1.215,0,0,0-.528.837H0A3.184,3.184,0,0,1,1.032.691a3.322,3.322,0,0,1,2-.691,7.672,7.672,0,0,1,1.52.375A2.954,2.954,0,0,1,5.617,1.382a3.349,3.349,0,0,1,.366,1.365A4.228,4.228,0,0,1,5.609,4,2.6,2.6,0,0,1,4.5,4.894,3.73,3.73,0,0,1,6.088,5.8,2.753,2.753,0,0,1,6.731,7.51a3.329,3.329,0,0,1-.983,2.366,2.977,2.977,0,0,1-2.479.968,2.976,2.976,0,0,1-2.244-.828A2.823,2.823,0,0,1,0,7.854Z" transform="translate(15 137.539)" fill="#89fc00" fill-rule="evenodd"/>
      <path id="Path_101" data-name="Path 101" d="M15.481,0,0,8.988" transform="translate(40.473 123.161)" fill="none" stroke="#89fc00" stroke-linecap="round" stroke-width="0.6"/>
      <path id="Path_102" data-name="Path 102" d="M10.431,9.056l1.967.422a6.865,6.865,0,0,1-2.089,3.577,5.442,5.442,0,0,1-3.666,1.228,6.54,6.54,0,0,1-3.674-.9A4.8,4.8,0,0,1,.823,10.748,8.159,8.159,0,0,1,.091,7.04,6.938,6.938,0,0,1,.9,3.278,5.343,5.343,0,0,1,3.22.839,8.049,8.049,0,0,1,6.521,0,5.934,5.934,0,0,1,9.967,1.124,7.123,7.123,0,0,1,11.91,4.251l-1.967.391A5.851,5.851,0,0,0,8.618,2.618a4.3,4.3,0,0,0-2.187-.641A5.284,5.284,0,0,0,3.9,2.684a3.757,3.757,0,0,0-1.431,1.9,6.05,6.05,0,0,0-.415,2.445,5.4,5.4,0,0,0,.5,2.861,2.951,2.951,0,0,0,1.577,1.821,3.263,3.263,0,0,0,2.317.6,3.378,3.378,0,0,0,2.553-.82A3.944,3.944,0,0,0,10.431,9.056Z" transform="translate(49.857 143.838)" fill="#89fc00" fill-rule="evenodd"/>
      <path id="Path_103" data-name="Path 103" d="M0,14.284V0H1.967V5.423H9.356V0h1.967V14.284H9.356V7.39H1.967v6.894Z" transform="translate(66.925 143.838)" fill="#89fc00" fill-rule="evenodd"/>
      <path id="Path_104" data-name="Path 104" d="M0,7.854H1.5A1.563,1.563,0,0,0,2.073,9c.181.329.669.35,1.244.35a1.523,1.523,0,0,0,1.455-.576A2.5,2.5,0,0,0,5.235,7.34,2.735,2.735,0,0,0,4.723,6a2.152,2.152,0,0,0-1.309-.537c-.217.06-.486.05-.8.146l.122-1.122c-.045.046.132.008.171.008A1.564,1.564,0,0,0,4,4.122c.3-.094.488-.647.488-1.18a1.537,1.537,0,0,0-.4-1.032A1.585,1.585,0,0,0,3.065,1.5c-.476.169-.764.1-1.04.285a1.215,1.215,0,0,0-.528.837H0A3.186,3.186,0,0,1,1.032.691a3.323,3.323,0,0,1,2-.691,7.67,7.67,0,0,1,1.52.375A2.952,2.952,0,0,1,5.617,1.382a3.345,3.345,0,0,1,.366,1.365A4.216,4.216,0,0,1,5.609,4,2.6,2.6,0,0,1,4.5,4.894,3.73,3.73,0,0,1,6.089,5.8,2.749,2.749,0,0,1,6.731,7.51a3.329,3.329,0,0,1-.984,2.366,2.976,2.976,0,0,1-2.479.968,2.976,2.976,0,0,1-2.244-.828A2.824,2.824,0,0,1,0,7.854Z" transform="translate(81.924 152.022)" fill="#89fc00" fill-rule="evenodd"/>
      <path id="Path_105" data-name="Path 105" d="M0,0V14.733" transform="translate(55.955 123.161)" fill="none" stroke="#89fc00" stroke-linecap="round" stroke-width="0.6"/>
      <path id="Path_106" data-name="Path 106" d="M0,0,25.222,14.484" transform="translate(105.649 123.161)" fill="none" stroke="#89fc00" stroke-linecap="round" stroke-width="0.6"/>
      <path id="Path_107" data-name="Path 107" d="M0,14.484,24.722,0" transform="translate(130.871 123.161)" fill="none" stroke="#89fc00" stroke-linecap="round" stroke-width="0.6"/>
      <path id="Path_108" data-name="Path 108" d="M0,10.988,18.479,0" transform="translate(131.37 120.414)" fill="none" stroke="#89fc00" stroke-linecap="round" stroke-width="0.6"/>
      <path id="Path_109" data-name="Path 109" d="M0,28.718V0" transform="translate(155.593 94.443)" fill="none" stroke="#89fc00" stroke-linecap="round" stroke-width="0.6"/>
      <path id="Path_110" data-name="Path 110" d="M24.972,14.236,0,0" transform="translate(130.621 80.207)" fill="none" stroke="#89fc00" stroke-linecap="round" stroke-width="0.6"/>
      <path id="Path_111" data-name="Path 111" d="M18.729,10.738,0,0" transform="translate(131.12 86.45)" fill="none" stroke="#89fc00" stroke-linecap="round" stroke-width="0.6"/>
      <path id="Path_112" data-name="Path 112" d="M0,14.236,24.972,0" transform="translate(105.649 80.207)" fill="none" stroke="#89fc00" stroke-linecap="round" stroke-width="0.6"/>
      <path id="Path_113" data-name="Path 113" d="M.084,7.325A6.965,6.965,0,0,1,1.936,1.944,6.711,6.711,0,0,1,6.741,0,7.911,7.911,0,0,1,10.2.92,7.242,7.242,0,0,1,12.57,3.463a11.806,11.806,0,0,1,.812,3.706,8.692,8.692,0,0,1-.862,3.756A6.169,6.169,0,0,1,10.1,13.437a5.978,5.978,0,0,1-3.365.845,6.326,6.326,0,0,1-3.511-.943A4.675,4.675,0,0,1,.881,10.771,6.543,6.543,0,0,1,.084,7.325Zm1.967.008a4.417,4.417,0,0,0,1.334,3.648,4.252,4.252,0,0,0,3.34,1.334,4.19,4.19,0,0,0,3.365-1.348,5.222,5.222,0,0,0,1.317-3.812,9.1,9.1,0,0,0-.568-2.732,6.527,6.527,0,0,0-1.65-1.8A5.822,5.822,0,0,0,6.75,1.975,5.174,5.174,0,0,0,3.432,3.211C2.452,4.079,2.051,5.4,2.051,7.333Z" transform="translate(124.03 43.201)" fill="#89fc00" fill-rule="evenodd"/>
      <path id="Path_114" data-name="Path 114" d="M0,14.282V0H1.967V5.423h7.39V0h1.967V14.282H9.356V7.39H1.967v6.892Z" transform="translate(142.589 43.201)" fill="#89fc00" fill-rule="evenodd"/>
      <path id="Path_115" data-name="Path 115" d="M0,19.226V0" transform="translate(130.621 60.981)" fill="none" stroke="#89fc00" stroke-linecap="round" stroke-width="0.6"/>
      <path id="Path_116" data-name="Path 116" d="M0,0,24.972,14.484" transform="translate(155.593 123.161)" fill="none" stroke="#89fc00" stroke-linecap="round" stroke-width="0.6"/>
      <path id="Path_117" data-name="Path 117" d="M0,14.484,24.972,0" transform="translate(180.565 123.161)" fill="none" stroke="#89fc00" stroke-linecap="round" stroke-width="0.6"/>
      <path id="Path_118" data-name="Path 118" d="M0,0,24.722,14.484" transform="translate(205.537 123.161)" fill="none" stroke="#89fc00" stroke-linecap="round" stroke-width="0.6"/>
      <path id="Path_119" data-name="Path 119" d="M0,14.484,24.972,0" transform="translate(230.259 123.161)" fill="none" stroke="#89fc00" stroke-linecap="round" stroke-width="0.6"/>
      <path id="Path_120" data-name="Path 120" d="M10.431,9.056l1.967.422a6.877,6.877,0,0,1-2.089,3.577,5.44,5.44,0,0,1-3.667,1.228,6.538,6.538,0,0,1-3.673-.9A4.8,4.8,0,0,1,.821,10.748,8.18,8.18,0,0,1,.091,7.04,6.936,6.936,0,0,1,.9,3.278,5.328,5.328,0,0,1,3.22.839,8.048,8.048,0,0,1,6.521,0,5.935,5.935,0,0,1,9.967,1.124a7.128,7.128,0,0,1,1.944,3.128l-1.969.391A5.861,5.861,0,0,0,8.618,2.618a4.3,4.3,0,0,0-2.187-.641A5.284,5.284,0,0,0,3.9,2.684a3.766,3.766,0,0,0-1.432,1.9,6.078,6.078,0,0,0-.414,2.445,5.419,5.419,0,0,0,.5,2.861,2.954,2.954,0,0,0,1.577,1.821,3.262,3.262,0,0,0,2.316.6,3.379,3.379,0,0,0,2.553-.82A3.946,3.946,0,0,0,10.431,9.056Z" transform="translate(274.104 129.354)" fill="#89fc00" fill-rule="evenodd"/>
      <path id="Path_121" data-name="Path 121" d="M0,14.284V0H1.967V5.423h7.39V0h1.967V14.284H9.356V7.39H1.967v6.894Z" transform="translate(291.171 129.354)" fill="#89fc00" fill-rule="evenodd"/>
      <path id="Path_122" data-name="Path 122" d="M0,7.854H1.5A1.562,1.562,0,0,0,2.073,9c.181.331.668.35,1.244.35a1.517,1.517,0,0,0,1.455-.576A2.5,2.5,0,0,0,5.236,7.34,2.737,2.737,0,0,0,4.724,6a2.151,2.151,0,0,0-1.309-.537c-.219.06-.487.05-.805.146l.123-1.122c-.046.046.131.008.171.008A1.563,1.563,0,0,0,4,4.122c.3-.094.487-.647.487-1.18a1.536,1.536,0,0,0-.4-1.032A1.583,1.583,0,0,0,3.065,1.5c-.477.169-.764.1-1.04.285a1.216,1.216,0,0,0-.529.837H0A3.182,3.182,0,0,1,1.032.691a3.324,3.324,0,0,1,2-.691A7.7,7.7,0,0,1,4.553.375,2.946,2.946,0,0,1,5.617,1.382a3.336,3.336,0,0,1,.366,1.365A4.16,4.16,0,0,1,5.608,4,2.581,2.581,0,0,1,4.5,4.894,3.73,3.73,0,0,1,6.089,5.8,2.757,2.757,0,0,1,6.73,7.51a3.329,3.329,0,0,1-.982,2.366,2.979,2.979,0,0,1-2.481.968,2.976,2.976,0,0,1-2.243-.828A2.825,2.825,0,0,1,0,7.854Z" transform="translate(306.171 137.539)" fill="#89fc00" fill-rule="evenodd"/>
      <path id="Path_123" data-name="Path 123" d="M0,0,13.735,7.991" transform="translate(255.231 123.161)" fill="none" stroke="#89fc00" stroke-linecap="round" stroke-width="0.6"/>
      <path id="Path_124" data-name="Path 124" d="M0,14.282V0H1.967V5.423H9.356V0h1.969V14.282H9.356V7.39H1.967v6.892Z" transform="translate(95.892 51.442)" fill="#89fc00" fill-rule="evenodd"/>
      <path id="Path_125" data-name="Path 125" d="M0,0,1.248,1.251" transform="translate(83.674 75.962)" fill="none" stroke="#89fc00" stroke-linecap="round" stroke-width="0.6"/>
      <path id="Path_126" data-name="Path 126" d="M0,0,2.5,2.247" transform="translate(86.67 71.967)" fill="none" stroke="#89fc00" stroke-linecap="round" stroke-width="0.6"/>
      <path id="Path_127" data-name="Path 127" d="M0,0,3.5,3.5" transform="translate(89.667 67.721)" fill="none" stroke="#89fc00" stroke-linecap="round" stroke-width="0.6"/>
      <path id="Path_128" data-name="Path 128" d="M0,14.282V0H1.967V5.421H9.356V0h1.967V14.282H9.356V7.387H1.967v6.894Z" transform="translate(30.215 106.632)" fill="#89fc00" fill-rule="evenodd"/>
      <path id="Path_129" data-name="Path 129" d="M12.236,0l1,1L3.747,13.233,2,11.485l-2-2" transform="translate(43.219 93.944)" fill="#89fc00" fill-rule="evenodd"/>
    </g>
  </g>
</svg>
