<svg xmlns="http://www.w3.org/2000/svg" width="161.281" height="199.657" viewBox="0 0 161.281 199.657">
  <path id="Alprazolam_200" d="M87.906,2.344a7.1,7.1,0,0,0-3.469.875A5.872,5.872,0,0,0,82,5.75a8.455,8.455,0,0,0-.844,3.906,9.61,9.61,0,0,0,.75,3.813,5.962,5.962,0,0,0,2.219,2.75,6.748,6.748,0,0,0,3.75.938,5.894,5.894,0,0,0,3.781-1.219,6.4,6.4,0,0,0,2.156-3.562l-1.906-.5a4.776,4.776,0,0,1-1.5,2.75,4.046,4.046,0,0,1-2.687.906,4.676,4.676,0,0,1-2.437-.687,3.954,3.954,0,0,1-1.656-2.031,8.731,8.731,0,0,1-.531-3.187,8.576,8.576,0,0,1,.469-2.75A4.188,4.188,0,0,1,85.125,4.75a4.6,4.6,0,0,1,2.75-.781,3.831,3.831,0,0,1,2.375.719,4.435,4.435,0,0,1,1.438,2.281l1.875-.437a5.713,5.713,0,0,0-2.031-3.094A5.9,5.9,0,0,0,87.906,2.344Zm-28.937.25V16.906h1.875v-6.75h7.438v6.75h1.906V2.594H68.281V8.469H60.844V2.594Zm74.125,2.938V19.875h1.813V8.625l7.531,11.25h1.938V5.531h-1.812v11.25l-7.531-11.25ZM75.813,10.656a3.236,3.236,0,0,0-2.156.719,3.405,3.405,0,0,0-1.094,2.063l1.313.25a2.482,2.482,0,0,1,.656-1.469,1.86,1.86,0,0,1,1.313-.469,1.7,1.7,0,0,1,1.25.469,1.581,1.581,0,0,1,.5,1.188,1.549,1.549,0,0,1-.687,1.375,2.661,2.661,0,0,1-1.5.438c-.054,0-.131-.021-.219-.031l-.156,1.156a3.669,3.669,0,0,1,.938-.125,2.031,2.031,0,0,1,2.094,2.094,2.139,2.139,0,0,1-2.219,2.219,1.872,1.872,0,0,1-1.312-.5,2.837,2.837,0,0,1-.781-1.594l-1.312.156A3.265,3.265,0,0,0,73.5,20.781a3.365,3.365,0,0,0,2.344.844,3.6,3.6,0,0,0,2.594-.969,3.155,3.155,0,0,0,1.031-2.375,2.831,2.831,0,0,0-.531-1.75,2.458,2.458,0,0,0-1.469-.906,2.51,2.51,0,0,0,1.094-.906,2.314,2.314,0,0,0,.375-1.281,2.594,2.594,0,0,0-.375-1.375,2.8,2.8,0,0,0-1.156-1.031A3.408,3.408,0,0,0,75.813,10.656Zm21.094,3.719-.594,1.063,15.437,8.906,1.656,18.031,1.188-.094-1.625-17.906,17.469-7.469-.469-1.094-17.594,7.5L96.906,14.375Zm35.062,6.188-14.406,6.156.469,1.094,14.406-6.156Zm14.813.375-.906.813,3.781,4.344.906-.781ZM152,27.219V41.531h1.813V30.281l7.531,11.25h1.938V27.219h-1.812V38.438l-7.531-11.219Zm-5.219,14.094-6.875,11.531,1.031.594,6.875-11.531Zm4.469,2.656-8.594,14.375-18.875-4.312-.25,1.156,19,4.344L154.75,84.906l-7.531,15.688,1.063.5,7.813-16.188L143.625,59.062l8.656-14.5-1.031-.594Zm-42.031,1.5V59.813h1.844V48.563l7.5,11.25H120.5V45.469h-1.812v11.25l-7.5-11.25Zm-41.688,10-25.5,14.719v28.75L21,111.094l.594,1.031L42.625,100l24.906,14.375,24.844-14.344,21.875,17.406L108,144.781,80.531,153.25,74,181.969,95.563,202l28.156-8.687,6.531-28.687-21.063-19.562,6.219-27.344,18.938-4.312-.25-1.156-19.031,4.313L93.031,99V70.844l14.188-11.312-.75-.937L92.375,69.844,67.531,55.469Zm0,1.406L91.844,70.906V98.938L67.531,112.969,43.25,98.938V70.906L67.531,56.875Zm.281,4.75-.594,1.031L86.938,74.063l.594-1.031ZM47.188,73.531V96.313h1.219V73.531H47.188Zm39.75,22.25L67.219,107.188l.594,1.031,19.75-11.375-.625-1.062Zm50.313,7.906V118h1.844V106.75l7.5,11.25h1.938V103.688h-1.812v11.25l-7.5-11.25ZM8.75,106.406a7.1,7.1,0,0,0-3.469.875,5.872,5.872,0,0,0-2.437,2.531A8.455,8.455,0,0,0,2,113.719a9.611,9.611,0,0,0,.75,3.813,5.962,5.962,0,0,0,2.219,2.75,6.748,6.748,0,0,0,3.75.938A5.894,5.894,0,0,0,12.5,120a6.4,6.4,0,0,0,2.156-3.562l-1.906-.5a4.748,4.748,0,0,1-1.469,2.75,4.13,4.13,0,0,1-2.719.906,4.568,4.568,0,0,1-2.406-.687A3.954,3.954,0,0,1,4.5,116.875a8.731,8.731,0,0,1-.531-3.187,8.546,8.546,0,0,1,.437-2.75,4.188,4.188,0,0,1,1.563-2.125,4.6,4.6,0,0,1,2.75-.781,3.831,3.831,0,0,1,2.375.719,4.468,4.468,0,0,1,1.469,2.281l1.844-.437a5.713,5.713,0,0,0-2.031-3.094A5.9,5.9,0,0,0,8.75,106.406Zm8,.25v14.313H18.5V106.656Zm116.156.531-16.875,3.844.281,1.188,16.875-3.875Zm-24.531,38.75L128.937,165l-6.25,27.375-26.812,8.25L75.312,181.563l6.25-27.375ZM107,150.5l-21.781,6.719.375,1.156,21.75-6.719L107,150.5Zm16.281,15.938-5.062,22.219,1.156.25,5.063-22.187-1.156-.281ZM80.75,179.563l-.812.875,16.688,15.5.813-.875Z" transform="translate(-2 -2.344)" fill="#a243ff"/>
</svg>
